# 3ds Max Wavefront OBJ Exporter v0.99 - (c)2007 guruware
# File Created: 29.10.2024 22:50:41

mtllib agua.mtl

#
# object Agua
#

v  -12.8269 -0.0757 12.0917
v  -12.7401 -0.0757 12.0921
v  -12.7405 -0.0757 11.9174
v  -12.8269 -0.0757 11.9164
v  -12.8269 -0.0757 12.2669
v  -12.7399 -0.0757 12.2670
v  -12.6532 -0.0757 12.0924
v  -12.6540 -0.0757 11.9182
v  -12.6528 -0.0757 12.2671
v  -12.8269 -0.0757 12.6174
v  -12.7398 -0.0757 12.6174
v  -12.7398 -0.0757 12.4422
v  -12.8269 -0.0757 12.4422
v  -12.6527 -0.0757 12.6174
v  -12.6527 -0.0757 12.4422
v  -12.4785 -0.0757 12.4422
v  -12.5656 -0.0757 12.4422
v  -12.5656 -0.0757 12.6174
v  -12.4785 -0.0757 12.6174
v  -12.4787 -0.0757 12.2672
v  -12.5658 -0.0757 12.2672
v  -12.4804 -0.0757 11.9191
v  -12.5673 -0.0757 11.9188
v  -12.5663 -0.0757 12.0926
v  -12.4793 -0.0757 12.0927
v  -12.3921 -0.0757 12.0926
v  -12.3932 -0.0757 11.9188
v  -12.3916 -0.0757 12.2672
v  -12.3049 -0.0757 12.0924
v  -12.3057 -0.0757 11.9183
v  -12.3045 -0.0757 12.2671
v  -12.3914 -0.0757 12.6174
v  -12.3914 -0.0757 12.4422
v  -12.3044 -0.0757 12.6174
v  -12.3044 -0.0757 12.4422
v  -12.1302 -0.0757 12.4422
v  -12.2173 -0.0757 12.4422
v  -12.2173 -0.0757 12.6174
v  -12.1302 -0.0757 12.6174
v  -12.1302 -0.0757 12.2670
v  -12.2174 -0.0757 12.2670
v  -12.1306 -0.0757 11.9170
v  -12.2181 -0.0757 11.9176
v  -12.2176 -0.0757 12.0922
v  -12.1304 -0.0757 12.0919
v  -12.0432 -0.0757 12.0918
v  -12.0433 -0.0757 11.9167
v  -12.0431 -0.0757 12.2669
v  -11.9560 -0.0757 12.0917
v  -11.9561 -0.0757 11.9165
v  -11.9560 -0.0757 12.2669
v  -12.0431 -0.0757 12.6174
v  -12.0431 -0.0757 12.4422
v  -11.9560 -0.0757 12.6174
v  -11.9560 -0.0757 12.4422
v  -11.7818 -0.0757 12.4422
v  -11.8689 -0.0757 12.4422
v  -11.8689 -0.0757 12.6174
v  -11.7818 -0.0757 12.6174
v  -11.7818 -0.0757 12.2669
v  -11.8689 -0.0757 12.2669
v  -11.7818 -0.0757 11.9164
v  -11.8689 -0.0757 11.9164
v  -11.8689 -0.0757 12.0917
v  -11.7818 -0.0757 12.0917
v  -11.6948 -0.0757 12.0917
v  -11.6948 -0.0757 11.9164
v  -11.6948 -0.0757 12.2669
v  -11.6077 -0.0757 12.0917
v  -11.6077 -0.0757 11.9164
v  -11.6077 -0.0757 12.2669
v  -11.6948 -0.0757 12.6174
v  -11.6948 -0.0757 12.4422
v  -11.6077 -0.0757 12.6174
v  -11.6077 -0.0757 12.4422
v  -11.4335 -0.0757 12.4422
v  -11.5206 -0.0757 12.4422
v  -11.5206 -0.0757 12.6174
v  -11.4335 -0.0757 12.6174
v  -11.4335 -0.0757 12.2669
v  -11.5206 -0.0757 12.2669
v  -11.4335 -0.0757 11.9164
v  -11.5206 -0.0757 11.9164
v  -11.5206 -0.0757 12.0917
v  -11.4335 -0.0757 12.0917
v  -12.8269 -0.0757 11.3907
v  -12.7425 -0.0757 11.3945
v  -12.7428 -0.0757 11.2196
v  -12.8269 -0.0757 11.2154
v  -12.8269 -0.0757 11.5659
v  -12.7419 -0.0757 11.5689
v  -12.6579 -0.0757 11.3978
v  -12.6584 -0.0757 11.2233
v  -12.6567 -0.0757 11.5715
v  -12.7412 -0.0757 11.7431
v  -12.8269 -0.0757 11.7412
v  -12.6553 -0.0757 11.7448
v  -12.4823 -0.0757 11.7464
v  -12.5690 -0.0757 11.7460
v  -12.4844 -0.0757 11.5741
v  -12.5709 -0.0757 11.5733
v  -12.4868 -0.0757 11.2270
v  -12.5732 -0.0757 11.2259
v  -12.5725 -0.0757 11.4002
v  -12.4861 -0.0757 11.4012
v  -12.3983 -0.0757 11.4002
v  -12.3990 -0.0757 11.2259
v  -12.3968 -0.0757 11.5733
v  -12.3097 -0.0757 11.3981
v  -12.3102 -0.0757 11.2236
v  -12.3085 -0.0757 11.5717
v  -12.3949 -0.0757 11.7460
v  -12.3070 -0.0757 11.7449
v  -12.1310 -0.0757 11.7424
v  -12.2190 -0.0757 11.7436
v  -12.1315 -0.0757 11.5678
v  -12.2199 -0.0757 11.5696
v  -12.1319 -0.0757 11.3931
v  -12.1321 -0.0757 11.2181
v  -12.2210 -0.0757 11.2207
v  -12.2207 -0.0757 11.3955
v  -12.0438 -0.0757 11.3916
v  -12.0439 -0.0757 11.2165
v  -12.0436 -0.0757 11.5667
v  -11.9562 -0.0757 11.3909
v  -11.9562 -0.0757 11.2157
v  -11.9561 -0.0757 11.5661
v  -12.0434 -0.0757 11.7417
v  -11.9561 -0.0757 11.7413
v  -11.7818 -0.0757 11.7412
v  -11.8689 -0.0757 11.7412
v  -11.7818 -0.0757 11.5659
v  -11.8689 -0.0757 11.5659
v  -11.7818 -0.0757 11.2154
v  -11.8689 -0.0757 11.2154
v  -11.8689 -0.0757 11.3907
v  -11.7818 -0.0757 11.3907
v  -11.6948 -0.0757 11.3907
v  -11.6948 -0.0757 11.2154
v  -11.6948 -0.0757 11.5659
v  -11.6077 -0.0757 11.3907
v  -11.6077 -0.0757 11.2154
v  -11.6077 -0.0757 11.5659
v  -11.6948 -0.0757 11.7412
v  -11.6077 -0.0757 11.7412
v  -11.4335 -0.0757 11.7412
v  -11.5206 -0.0757 11.7412
v  -11.4335 -0.0757 11.5659
v  -11.5206 -0.0757 11.5659
v  -11.4335 -0.0757 11.2154
v  -11.5206 -0.0757 11.2154
v  -11.5206 -0.0757 11.3907
v  -11.4335 -0.0757 11.3907
v  -12.8269 -0.0757 10.6897
v  -12.7412 -0.0757 10.6916
v  -12.7405 -0.0757 10.5154
v  -12.8269 -0.0757 10.5145
v  -12.8269 -0.0757 10.8650
v  -12.7419 -0.0757 10.8679
v  -12.6553 -0.0757 10.6933
v  -12.6540 -0.0757 10.5163
v  -12.6567 -0.0757 10.8705
v  -12.7425 -0.0757 11.0440
v  -12.8269 -0.0757 11.0402
v  -12.6579 -0.0757 11.0474
v  -12.4861 -0.0757 11.0507
v  -12.5725 -0.0757 11.0497
v  -12.4844 -0.0757 10.8731
v  -12.5709 -0.0757 10.8723
v  -12.4804 -0.0757 10.5171
v  -12.5673 -0.0757 10.5168
v  -12.5690 -0.0757 10.6945
v  -12.4823 -0.0757 10.6950
v  -12.3949 -0.0757 10.6945
v  -12.3932 -0.0757 10.5168
v  -12.3968 -0.0757 10.8723
v  -12.3070 -0.0757 10.6934
v  -12.3057 -0.0757 10.5163
v  -12.3085 -0.0757 10.8707
v  -12.3983 -0.0757 11.0497
v  -12.3097 -0.0757 11.0476
v  -12.1319 -0.0757 11.0426
v  -12.2207 -0.0757 11.0450
v  -12.1315 -0.0757 10.8668
v  -12.2199 -0.0757 10.8687
v  -12.1310 -0.0757 10.6909
v  -12.1306 -0.0757 10.5151
v  -12.2181 -0.0757 10.5157
v  -12.2190 -0.0757 10.6921
v  -12.0434 -0.0757 10.6902
v  -12.0433 -0.0757 10.5147
v  -12.0436 -0.0757 10.8657
v  -11.9561 -0.0757 10.6898
v  -11.9561 -0.0757 10.5145
v  -11.9561 -0.0757 10.8651
v  -12.0438 -0.0757 11.0412
v  -11.9562 -0.0757 11.0404
v  -11.7818 -0.0757 11.0402
v  -11.8689 -0.0757 11.0402
v  -11.7818 -0.0757 10.8650
v  -11.8689 -0.0757 10.8650
v  -11.7818 -0.0757 10.5145
v  -11.8689 -0.0757 10.5145
v  -11.8689 -0.0757 10.6897
v  -11.7818 -0.0757 10.6897
v  -11.6948 -0.0757 10.6897
v  -11.6948 -0.0757 10.5145
v  -11.6948 -0.0757 10.8650
v  -11.6077 -0.0757 10.6897
v  -11.6077 -0.0757 10.5145
v  -11.6077 -0.0757 10.8650
v  -11.6948 -0.0757 11.0402
v  -11.6077 -0.0757 11.0402
v  -11.4335 -0.0757 11.0402
v  -11.5206 -0.0757 11.0402
v  -11.4335 -0.0757 10.8650
v  -11.5206 -0.0757 10.8650
v  -11.4335 -0.0757 10.5145
v  -11.5206 -0.0757 10.5145
v  -11.5206 -0.0757 10.6897
v  -11.4335 -0.0757 10.6897
v  -12.8269 -0.0757 9.9887
v  -12.7398 -0.0757 9.9887
v  -12.7398 -0.0757 9.8135
v  -12.8269 -0.0757 9.8135
v  -12.8269 -0.0757 10.1640
v  -12.7399 -0.0757 10.1641
v  -12.6527 -0.0757 9.9887
v  -12.6527 -0.0757 9.8135
v  -12.6528 -0.0757 10.1642
v  -12.7401 -0.0757 10.3396
v  -12.8269 -0.0757 10.3392
v  -12.6532 -0.0757 10.3399
v  -12.4793 -0.0757 10.3403
v  -12.5663 -0.0757 10.3402
v  -12.4787 -0.0757 10.1642
v  -12.5658 -0.0757 10.1642
v  -12.4785 -0.0757 9.8135
v  -12.5656 -0.0757 9.8135
v  -12.5656 -0.0757 9.9887
v  -12.4785 -0.0757 9.9887
v  -12.3914 -0.0757 9.9887
v  -12.3914 -0.0757 9.8135
v  -12.3916 -0.0757 10.1642
v  -12.3044 -0.0757 9.9887
v  -12.3044 -0.0757 9.8135
v  -12.3045 -0.0757 10.1642
v  -12.3921 -0.0757 10.3402
v  -12.3049 -0.0757 10.3400
v  -12.1304 -0.0757 10.3395
v  -12.2176 -0.0757 10.3397
v  -12.1302 -0.0757 10.1640
v  -12.2174 -0.0757 10.1641
v  -12.1302 -0.0757 9.8135
v  -12.2173 -0.0757 9.8135
v  -12.2173 -0.0757 9.9887
v  -12.1302 -0.0757 9.9887
v  -12.0431 -0.0757 9.9887
v  -12.0431 -0.0757 9.8135
v  -12.0431 -0.0757 10.1640
v  -11.9560 -0.0757 9.9887
v  -11.9560 -0.0757 9.8135
v  -11.9560 -0.0757 10.1640
v  -12.0432 -0.0757 10.3393
v  -11.9560 -0.0757 10.3392
v  -11.7818 -0.0757 10.3392
v  -11.8689 -0.0757 10.3392
v  -11.7818 -0.0757 10.1640
v  -11.8689 -0.0757 10.1640
v  -11.7818 -0.0757 9.8135
v  -11.8689 -0.0757 9.8135
v  -11.8689 -0.0757 9.9887
v  -11.7818 -0.0757 9.9887
v  -11.6948 -0.0757 9.9887
v  -11.6948 -0.0757 9.8135
v  -11.6948 -0.0757 10.1640
v  -11.6077 -0.0757 9.9887
v  -11.6077 -0.0757 9.8135
v  -11.6077 -0.0757 10.1640
v  -11.6948 -0.0757 10.3392
v  -11.6077 -0.0757 10.3392
v  -11.4335 -0.0757 10.3392
v  -11.5206 -0.0757 10.3392
v  -11.4335 -0.0757 10.1640
v  -11.5206 -0.0757 10.1640
v  -11.4335 -0.0757 9.8135
v  -11.5206 -0.0757 9.8135
v  -11.5206 -0.0757 9.9887
v  -11.4335 -0.0757 9.9887
# 289 vertices

vn 0.0000 1.0000 -0.0000
# 1 vertex normals

vt 0.0000 0.1875 0.0000
vt 0.0625 0.1875 0.0000
vt 0.0625 0.2500 0.0000
vt 0.0000 0.2500 0.0000
vt 0.0000 0.1250 0.0000
vt 0.0625 0.1250 0.0000
vt 0.1250 0.1875 0.0000
vt 0.1250 0.2500 0.0000
vt 0.1250 0.1250 0.0000
vt 0.0000 0.0000 0.0000
vt 0.0625 0.0000 0.0000
vt 0.0625 0.0625 0.0000
vt 0.0000 0.0625 0.0000
vt 0.1250 0.0000 0.0000
vt 0.1250 0.0625 0.0000
vt 0.2500 0.0625 0.0000
vt 0.1875 0.0625 0.0000
vt 0.1875 0.0000 0.0000
vt 0.2500 0.0000 0.0000
vt 0.2500 0.1250 0.0000
vt 0.1875 0.1250 0.0000
vt 0.2500 0.2500 0.0000
vt 0.1875 0.2500 0.0000
vt 0.1875 0.1875 0.0000
vt 0.2500 0.1875 0.0000
vt 0.3125 0.1875 0.0000
vt 0.3125 0.2500 0.0000
vt 0.3125 0.1250 0.0000
vt 0.3750 0.1875 0.0000
vt 0.3750 0.2500 0.0000
vt 0.3750 0.1250 0.0000
vt 0.3125 0.0000 0.0000
vt 0.3125 0.0625 0.0000
vt 0.3750 0.0000 0.0000
vt 0.3750 0.0625 0.0000
vt 0.5000 0.0625 0.0000
vt 0.4375 0.0625 0.0000
vt 0.4375 0.0000 0.0000
vt 0.5000 0.0000 0.0000
vt 0.5000 0.1250 0.0000
vt 0.4375 0.1250 0.0000
vt 0.5000 0.2500 0.0000
vt 0.4375 0.2500 0.0000
vt 0.4375 0.1875 0.0000
vt 0.5000 0.1875 0.0000
vt 0.5625 0.1875 0.0000
vt 0.5625 0.2500 0.0000
vt 0.5625 0.1250 0.0000
vt 0.6250 0.1875 0.0000
vt 0.6250 0.2500 0.0000
vt 0.6250 0.1250 0.0000
vt 0.5625 0.0000 0.0000
vt 0.5625 0.0625 0.0000
vt 0.6250 0.0000 0.0000
vt 0.6250 0.0625 0.0000
vt 0.7500 0.0625 0.0000
vt 0.6875 0.0625 0.0000
vt 0.6875 0.0000 0.0000
vt 0.7500 0.0000 0.0000
vt 0.7500 0.1250 0.0000
vt 0.6875 0.1250 0.0000
vt 0.7500 0.2500 0.0000
vt 0.6875 0.2500 0.0000
vt 0.6875 0.1875 0.0000
vt 0.7500 0.1875 0.0000
vt 0.8125 0.1875 0.0000
vt 0.8125 0.2500 0.0000
vt 0.8125 0.1250 0.0000
vt 0.8750 0.1875 0.0000
vt 0.8750 0.2500 0.0000
vt 0.8750 0.1250 0.0000
vt 0.8125 0.0000 0.0000
vt 0.8125 0.0625 0.0000
vt 0.8750 0.0000 0.0000
vt 0.8750 0.0625 0.0000
vt 1.0000 0.0625 0.0000
vt 0.9375 0.0625 0.0000
vt 0.9375 0.0000 0.0000
vt 1.0000 0.0000 0.0000
vt 1.0000 0.1250 0.0000
vt 0.9375 0.1250 0.0000
vt 1.0000 0.2500 0.0000
vt 0.9375 0.2500 0.0000
vt 0.9375 0.1875 0.0000
vt 1.0000 0.1875 0.0000
vt 0.0000 0.4375 0.0000
vt 0.0625 0.4375 0.0000
vt 0.0625 0.5000 0.0000
vt 0.0000 0.5000 0.0000
vt 0.0000 0.3750 0.0000
vt 0.0625 0.3750 0.0000
vt 0.1250 0.4375 0.0000
vt 0.1250 0.5000 0.0000
vt 0.1250 0.3750 0.0000
vt 0.0625 0.3125 0.0000
vt 0.0000 0.3125 0.0000
vt 0.1250 0.3125 0.0000
vt 0.2500 0.3125 0.0000
vt 0.1875 0.3125 0.0000
vt 0.2500 0.3750 0.0000
vt 0.1875 0.3750 0.0000
vt 0.2500 0.5000 0.0000
vt 0.1875 0.5000 0.0000
vt 0.1875 0.4375 0.0000
vt 0.2500 0.4375 0.0000
vt 0.3125 0.4375 0.0000
vt 0.3125 0.5000 0.0000
vt 0.3125 0.3750 0.0000
vt 0.3750 0.4375 0.0000
vt 0.3750 0.5000 0.0000
vt 0.3750 0.3750 0.0000
vt 0.3125 0.3125 0.0000
vt 0.3750 0.3125 0.0000
vt 0.5000 0.3125 0.0000
vt 0.4375 0.3125 0.0000
vt 0.5000 0.3750 0.0000
vt 0.4375 0.3750 0.0000
vt 0.5000 0.4375 0.0000
vt 0.5000 0.5000 0.0000
vt 0.4375 0.5000 0.0000
vt 0.4375 0.4375 0.0000
vt 0.5625 0.4375 0.0000
vt 0.5625 0.5000 0.0000
vt 0.5625 0.3750 0.0000
vt 0.6250 0.4375 0.0000
vt 0.6250 0.5000 0.0000
vt 0.6250 0.3750 0.0000
vt 0.5625 0.3125 0.0000
vt 0.6250 0.3125 0.0000
vt 0.7500 0.3125 0.0000
vt 0.6875 0.3125 0.0000
vt 0.7500 0.3750 0.0000
vt 0.6875 0.3750 0.0000
vt 0.7500 0.5000 0.0000
vt 0.6875 0.5000 0.0000
vt 0.6875 0.4375 0.0000
vt 0.7500 0.4375 0.0000
vt 0.8125 0.4375 0.0000
vt 0.8125 0.5000 0.0000
vt 0.8125 0.3750 0.0000
vt 0.8750 0.4375 0.0000
vt 0.8750 0.5000 0.0000
vt 0.8750 0.3750 0.0000
vt 0.8125 0.3125 0.0000
vt 0.8750 0.3125 0.0000
vt 1.0000 0.3125 0.0000
vt 0.9375 0.3125 0.0000
vt 1.0000 0.3750 0.0000
vt 0.9375 0.3750 0.0000
vt 1.0000 0.5000 0.0000
vt 0.9375 0.5000 0.0000
vt 0.9375 0.4375 0.0000
vt 1.0000 0.4375 0.0000
vt 0.0000 0.6875 0.0000
vt 0.0625 0.6875 0.0000
vt 0.0625 0.7500 0.0000
vt 0.0000 0.7500 0.0000
vt 0.0000 0.6250 0.0000
vt 0.0625 0.6250 0.0000
vt 0.1250 0.6875 0.0000
vt 0.1250 0.7500 0.0000
vt 0.1250 0.6250 0.0000
vt 0.0625 0.5625 0.0000
vt 0.0000 0.5625 0.0000
vt 0.1250 0.5625 0.0000
vt 0.2500 0.5625 0.0000
vt 0.1875 0.5625 0.0000
vt 0.2500 0.6250 0.0000
vt 0.1875 0.6250 0.0000
vt 0.2500 0.7500 0.0000
vt 0.1875 0.7500 0.0000
vt 0.1875 0.6875 0.0000
vt 0.2500 0.6875 0.0000
vt 0.3125 0.6875 0.0000
vt 0.3125 0.7500 0.0000
vt 0.3125 0.6250 0.0000
vt 0.3750 0.6875 0.0000
vt 0.3750 0.7500 0.0000
vt 0.3750 0.6250 0.0000
vt 0.3125 0.5625 0.0000
vt 0.3750 0.5625 0.0000
vt 0.5000 0.5625 0.0000
vt 0.4375 0.5625 0.0000
vt 0.5000 0.6250 0.0000
vt 0.4375 0.6250 0.0000
vt 0.5000 0.6875 0.0000
vt 0.5000 0.7500 0.0000
vt 0.4375 0.7500 0.0000
vt 0.4375 0.6875 0.0000
vt 0.5625 0.6875 0.0000
vt 0.5625 0.7500 0.0000
vt 0.5625 0.6250 0.0000
vt 0.6250 0.6875 0.0000
vt 0.6250 0.7500 0.0000
vt 0.6250 0.6250 0.0000
vt 0.5625 0.5625 0.0000
vt 0.6250 0.5625 0.0000
vt 0.7500 0.5625 0.0000
vt 0.6875 0.5625 0.0000
vt 0.7500 0.6250 0.0000
vt 0.6875 0.6250 0.0000
vt 0.7500 0.7500 0.0000
vt 0.6875 0.7500 0.0000
vt 0.6875 0.6875 0.0000
vt 0.7500 0.6875 0.0000
vt 0.8125 0.6875 0.0000
vt 0.8125 0.7500 0.0000
vt 0.8125 0.6250 0.0000
vt 0.8750 0.6875 0.0000
vt 0.8750 0.7500 0.0000
vt 0.8750 0.6250 0.0000
vt 0.8125 0.5625 0.0000
vt 0.8750 0.5625 0.0000
vt 1.0000 0.5625 0.0000
vt 0.9375 0.5625 0.0000
vt 1.0000 0.6250 0.0000
vt 0.9375 0.6250 0.0000
vt 1.0000 0.7500 0.0000
vt 0.9375 0.7500 0.0000
vt 0.9375 0.6875 0.0000
vt 1.0000 0.6875 0.0000
vt 0.0000 0.9375 0.0000
vt 0.0625 0.9375 0.0000
vt 0.0625 1.0000 0.0000
vt 0.0000 1.0000 0.0000
vt 0.0000 0.8750 0.0000
vt 0.0625 0.8750 0.0000
vt 0.1250 0.9375 0.0000
vt 0.1250 1.0000 0.0000
vt 0.1250 0.8750 0.0000
vt 0.0625 0.8125 0.0000
vt 0.0000 0.8125 0.0000
vt 0.1250 0.8125 0.0000
vt 0.2500 0.8125 0.0000
vt 0.1875 0.8125 0.0000
vt 0.2500 0.8750 0.0000
vt 0.1875 0.8750 0.0000
vt 0.2500 1.0000 0.0000
vt 0.1875 1.0000 0.0000
vt 0.1875 0.9375 0.0000
vt 0.2500 0.9375 0.0000
vt 0.3125 0.9375 0.0000
vt 0.3125 1.0000 0.0000
vt 0.3125 0.8750 0.0000
vt 0.3750 0.9375 0.0000
vt 0.3750 1.0000 0.0000
vt 0.3750 0.8750 0.0000
vt 0.3125 0.8125 0.0000
vt 0.3750 0.8125 0.0000
vt 0.5000 0.8125 0.0000
vt 0.4375 0.8125 0.0000
vt 0.5000 0.8750 0.0000
vt 0.4375 0.8750 0.0000
vt 0.5000 1.0000 0.0000
vt 0.4375 1.0000 0.0000
vt 0.4375 0.9375 0.0000
vt 0.5000 0.9375 0.0000
vt 0.5625 0.9375 0.0000
vt 0.5625 1.0000 0.0000
vt 0.5625 0.8750 0.0000
vt 0.6250 0.9375 0.0000
vt 0.6250 1.0000 0.0000
vt 0.6250 0.8750 0.0000
vt 0.5625 0.8125 0.0000
vt 0.6250 0.8125 0.0000
vt 0.7500 0.8125 0.0000
vt 0.6875 0.8125 0.0000
vt 0.7500 0.8750 0.0000
vt 0.6875 0.8750 0.0000
vt 0.7500 1.0000 0.0000
vt 0.6875 1.0000 0.0000
vt 0.6875 0.9375 0.0000
vt 0.7500 0.9375 0.0000
vt 0.8125 0.9375 0.0000
vt 0.8125 1.0000 0.0000
vt 0.8125 0.8750 0.0000
vt 0.8750 0.9375 0.0000
vt 0.8750 1.0000 0.0000
vt 0.8750 0.8750 0.0000
vt 0.8125 0.8125 0.0000
vt 0.8750 0.8125 0.0000
vt 1.0000 0.8125 0.0000
vt 0.9375 0.8125 0.0000
vt 1.0000 0.8750 0.0000
vt 0.9375 0.8750 0.0000
vt 1.0000 1.0000 0.0000
vt 0.9375 1.0000 0.0000
vt 0.9375 0.9375 0.0000
vt 1.0000 0.9375 0.0000
# 289 texture coords

o Agua
g Agua
usemtl agua_Material__2
s 2
f 1/1/1 2/2/1 3/3/1 
f 3/3/1 4/4/1 1/1/1 
f 5/5/1 6/6/1 2/2/1 
f 2/2/1 1/1/1 5/5/1 
f 2/2/1 7/7/1 8/8/1 
f 8/8/1 3/3/1 2/2/1 
f 6/6/1 9/9/1 7/7/1 
f 7/7/1 2/2/1 6/6/1 
f 10/10/1 11/11/1 12/12/1 
f 12/12/1 13/13/1 10/10/1 
f 11/11/1 14/14/1 15/15/1 
f 15/15/1 12/12/1 11/11/1 
f 13/13/1 12/12/1 6/6/1 
f 6/6/1 5/5/1 13/13/1 
f 12/12/1 15/15/1 9/9/1 
f 9/9/1 6/6/1 12/12/1 
f 16/16/1 17/17/1 18/18/1 
f 18/18/1 19/19/1 16/16/1 
f 20/20/1 21/21/1 17/17/1 
f 17/17/1 16/16/1 20/20/1 
f 17/17/1 15/15/1 14/14/1 
f 14/14/1 18/18/1 17/17/1 
f 21/21/1 9/9/1 15/15/1 
f 15/15/1 17/17/1 21/21/1 
f 22/22/1 23/23/1 24/24/1 
f 24/24/1 25/25/1 22/22/1 
f 23/23/1 8/8/1 7/7/1 
f 7/7/1 24/24/1 23/23/1 
f 25/25/1 24/24/1 21/21/1 
f 21/21/1 20/20/1 25/25/1 
f 24/24/1 7/7/1 9/9/1 
f 9/9/1 21/21/1 24/24/1 
f 25/25/1 26/26/1 27/27/1 
f 27/27/1 22/22/1 25/25/1 
f 20/20/1 28/28/1 26/26/1 
f 26/26/1 25/25/1 20/20/1 
f 26/26/1 29/29/1 30/30/1 
f 30/30/1 27/27/1 26/26/1 
f 28/28/1 31/31/1 29/29/1 
f 29/29/1 26/26/1 28/28/1 
f 19/19/1 32/32/1 33/33/1 
f 33/33/1 16/16/1 19/19/1 
f 32/32/1 34/34/1 35/35/1 
f 35/35/1 33/33/1 32/32/1 
f 16/16/1 33/33/1 28/28/1 
f 28/28/1 20/20/1 16/16/1 
f 33/33/1 35/35/1 31/31/1 
f 31/31/1 28/28/1 33/33/1 
f 36/36/1 37/37/1 38/38/1 
f 38/38/1 39/39/1 36/36/1 
f 40/40/1 41/41/1 37/37/1 
f 37/37/1 36/36/1 40/40/1 
f 37/37/1 35/35/1 34/34/1 
f 34/34/1 38/38/1 37/37/1 
f 41/41/1 31/31/1 35/35/1 
f 35/35/1 37/37/1 41/41/1 
f 42/42/1 43/43/1 44/44/1 
f 44/44/1 45/45/1 42/42/1 
f 43/43/1 30/30/1 29/29/1 
f 29/29/1 44/44/1 43/43/1 
f 45/45/1 44/44/1 41/41/1 
f 41/41/1 40/40/1 45/45/1 
f 44/44/1 29/29/1 31/31/1 
f 31/31/1 41/41/1 44/44/1 
f 45/45/1 46/46/1 47/47/1 
f 47/47/1 42/42/1 45/45/1 
f 40/40/1 48/48/1 46/46/1 
f 46/46/1 45/45/1 40/40/1 
f 46/46/1 49/49/1 50/50/1 
f 50/50/1 47/47/1 46/46/1 
f 48/48/1 51/51/1 49/49/1 
f 49/49/1 46/46/1 48/48/1 
f 39/39/1 52/52/1 53/53/1 
f 53/53/1 36/36/1 39/39/1 
f 52/52/1 54/54/1 55/55/1 
f 55/55/1 53/53/1 52/52/1 
f 36/36/1 53/53/1 48/48/1 
f 48/48/1 40/40/1 36/36/1 
f 53/53/1 55/55/1 51/51/1 
f 51/51/1 48/48/1 53/53/1 
f 56/56/1 57/57/1 58/58/1 
f 58/58/1 59/59/1 56/56/1 
f 60/60/1 61/61/1 57/57/1 
f 57/57/1 56/56/1 60/60/1 
f 57/57/1 55/55/1 54/54/1 
f 54/54/1 58/58/1 57/57/1 
f 61/61/1 51/51/1 55/55/1 
f 55/55/1 57/57/1 61/61/1 
f 62/62/1 63/63/1 64/64/1 
f 64/64/1 65/65/1 62/62/1 
f 63/63/1 50/50/1 49/49/1 
f 49/49/1 64/64/1 63/63/1 
f 65/65/1 64/64/1 61/61/1 
f 61/61/1 60/60/1 65/65/1 
f 64/64/1 49/49/1 51/51/1 
f 51/51/1 61/61/1 64/64/1 
f 65/65/1 66/66/1 67/67/1 
f 67/67/1 62/62/1 65/65/1 
f 60/60/1 68/68/1 66/66/1 
f 66/66/1 65/65/1 60/60/1 
f 66/66/1 69/69/1 70/70/1 
f 70/70/1 67/67/1 66/66/1 
f 68/68/1 71/71/1 69/69/1 
f 69/69/1 66/66/1 68/68/1 
f 59/59/1 72/72/1 73/73/1 
f 73/73/1 56/56/1 59/59/1 
f 72/72/1 74/74/1 75/75/1 
f 75/75/1 73/73/1 72/72/1 
f 56/56/1 73/73/1 68/68/1 
f 68/68/1 60/60/1 56/56/1 
f 73/73/1 75/75/1 71/71/1 
f 71/71/1 68/68/1 73/73/1 
f 76/76/1 77/77/1 78/78/1 
f 78/78/1 79/79/1 76/76/1 
f 80/80/1 81/81/1 77/77/1 
f 77/77/1 76/76/1 80/80/1 
f 77/77/1 75/75/1 74/74/1 
f 74/74/1 78/78/1 77/77/1 
f 81/81/1 71/71/1 75/75/1 
f 75/75/1 77/77/1 81/81/1 
f 82/82/1 83/83/1 84/84/1 
f 84/84/1 85/85/1 82/82/1 
f 83/83/1 70/70/1 69/69/1 
f 69/69/1 84/84/1 83/83/1 
f 85/85/1 84/84/1 81/81/1 
f 81/81/1 80/80/1 85/85/1 
f 84/84/1 69/69/1 71/71/1 
f 71/71/1 81/81/1 84/84/1 
f 86/86/1 87/87/1 88/88/1 
f 88/88/1 89/89/1 86/86/1 
f 90/90/1 91/91/1 87/87/1 
f 87/87/1 86/86/1 90/90/1 
f 87/87/1 92/92/1 93/93/1 
f 93/93/1 88/88/1 87/87/1 
f 91/91/1 94/94/1 92/92/1 
f 92/92/1 87/87/1 91/91/1 
f 4/4/1 3/3/1 95/95/1 
f 95/95/1 96/96/1 4/4/1 
f 3/3/1 8/8/1 97/97/1 
f 97/97/1 95/95/1 3/3/1 
f 96/96/1 95/95/1 91/91/1 
f 91/91/1 90/90/1 96/96/1 
f 95/95/1 97/97/1 94/94/1 
f 94/94/1 91/91/1 95/95/1 
f 98/98/1 99/99/1 23/23/1 
f 23/23/1 22/22/1 98/98/1 
f 100/100/1 101/101/1 99/99/1 
f 99/99/1 98/98/1 100/100/1 
f 99/99/1 97/97/1 8/8/1 
f 8/8/1 23/23/1 99/99/1 
f 101/101/1 94/94/1 97/97/1 
f 97/97/1 99/99/1 101/101/1 
f 102/102/1 103/103/1 104/104/1 
f 104/104/1 105/105/1 102/102/1 
f 103/103/1 93/93/1 92/92/1 
f 92/92/1 104/104/1 103/103/1 
f 105/105/1 104/104/1 101/101/1 
f 101/101/1 100/100/1 105/105/1 
f 104/104/1 92/92/1 94/94/1 
f 94/94/1 101/101/1 104/104/1 
f 102/102/1 105/105/1 106/106/1 
f 106/106/1 107/107/1 102/102/1 
f 100/100/1 108/108/1 106/106/1 
f 106/106/1 105/105/1 100/100/1 
f 107/107/1 106/106/1 109/109/1 
f 109/109/1 110/110/1 107/107/1 
f 106/106/1 108/108/1 111/111/1 
f 111/111/1 109/109/1 106/106/1 
f 22/22/1 27/27/1 112/112/1 
f 112/112/1 98/98/1 22/22/1 
f 27/27/1 30/30/1 113/113/1 
f 113/113/1 112/112/1 27/27/1 
f 98/98/1 112/112/1 108/108/1 
f 108/108/1 100/100/1 98/98/1 
f 112/112/1 113/113/1 111/111/1 
f 111/111/1 108/108/1 112/112/1 
f 42/42/1 114/114/1 115/115/1 
f 115/115/1 43/43/1 42/42/1 
f 114/114/1 116/116/1 117/117/1 
f 117/117/1 115/115/1 114/114/1 
f 115/115/1 113/113/1 30/30/1 
f 30/30/1 43/43/1 115/115/1 
f 115/115/1 117/117/1 111/111/1 
f 111/111/1 113/113/1 115/115/1 
f 118/118/1 119/119/1 120/120/1 
f 120/120/1 121/121/1 118/118/1 
f 121/121/1 120/120/1 110/110/1 
f 110/110/1 109/109/1 121/121/1 
f 116/116/1 118/118/1 121/121/1 
f 121/121/1 117/117/1 116/116/1 
f 117/117/1 121/121/1 109/109/1 
f 109/109/1 111/111/1 117/117/1 
f 119/119/1 118/118/1 122/122/1 
f 122/122/1 123/123/1 119/119/1 
f 118/118/1 116/116/1 124/124/1 
f 124/124/1 122/122/1 118/118/1 
f 123/123/1 122/122/1 125/125/1 
f 125/125/1 126/126/1 123/123/1 
f 122/122/1 124/124/1 127/127/1 
f 127/127/1 125/125/1 122/122/1 
f 42/42/1 47/47/1 128/128/1 
f 128/128/1 114/114/1 42/42/1 
f 47/47/1 50/50/1 129/129/1 
f 129/129/1 128/128/1 47/47/1 
f 116/116/1 114/114/1 128/128/1 
f 128/128/1 124/124/1 116/116/1 
f 128/128/1 129/129/1 127/127/1 
f 127/127/1 124/124/1 128/128/1 
f 130/130/1 131/131/1 63/63/1 
f 63/63/1 62/62/1 130/130/1 
f 132/132/1 133/133/1 131/131/1 
f 131/131/1 130/130/1 132/132/1 
f 131/131/1 129/129/1 50/50/1 
f 50/50/1 63/63/1 131/131/1 
f 133/133/1 127/127/1 129/129/1 
f 129/129/1 131/131/1 133/133/1 
f 134/134/1 135/135/1 136/136/1 
f 136/136/1 137/137/1 134/134/1 
f 135/135/1 126/126/1 125/125/1 
f 125/125/1 136/136/1 135/135/1 
f 137/137/1 136/136/1 133/133/1 
f 133/133/1 132/132/1 137/137/1 
f 136/136/1 125/125/1 127/127/1 
f 127/127/1 133/133/1 136/136/1 
f 137/137/1 138/138/1 139/139/1 
f 139/139/1 134/134/1 137/137/1 
f 132/132/1 140/140/1 138/138/1 
f 138/138/1 137/137/1 132/132/1 
f 138/138/1 141/141/1 142/142/1 
f 142/142/1 139/139/1 138/138/1 
f 140/140/1 143/143/1 141/141/1 
f 141/141/1 138/138/1 140/140/1 
f 62/62/1 67/67/1 144/144/1 
f 144/144/1 130/130/1 62/62/1 
f 67/67/1 70/70/1 145/145/1 
f 145/145/1 144/144/1 67/67/1 
f 130/130/1 144/144/1 140/140/1 
f 140/140/1 132/132/1 130/130/1 
f 144/144/1 145/145/1 143/143/1 
f 143/143/1 140/140/1 144/144/1 
f 146/146/1 147/147/1 83/83/1 
f 83/83/1 82/82/1 146/146/1 
f 148/148/1 149/149/1 147/147/1 
f 147/147/1 146/146/1 148/148/1 
f 147/147/1 145/145/1 70/70/1 
f 70/70/1 83/83/1 147/147/1 
f 149/149/1 143/143/1 145/145/1 
f 145/145/1 147/147/1 149/149/1 
f 150/150/1 151/151/1 152/152/1 
f 152/152/1 153/153/1 150/150/1 
f 151/151/1 142/142/1 141/141/1 
f 141/141/1 152/152/1 151/151/1 
f 153/153/1 152/152/1 149/149/1 
f 149/149/1 148/148/1 153/153/1 
f 152/152/1 141/141/1 143/143/1 
f 143/143/1 149/149/1 152/152/1 
f 154/154/1 155/155/1 156/156/1 
f 156/156/1 157/157/1 154/154/1 
f 158/158/1 159/159/1 155/155/1 
f 155/155/1 154/154/1 158/158/1 
f 155/155/1 160/160/1 161/161/1 
f 161/161/1 156/156/1 155/155/1 
f 159/159/1 162/162/1 160/160/1 
f 160/160/1 155/155/1 159/159/1 
f 89/89/1 88/88/1 163/163/1 
f 163/163/1 164/164/1 89/89/1 
f 88/88/1 93/93/1 165/165/1 
f 165/165/1 163/163/1 88/88/1 
f 164/164/1 163/163/1 159/159/1 
f 159/159/1 158/158/1 164/164/1 
f 163/163/1 165/165/1 162/162/1 
f 162/162/1 159/159/1 163/163/1 
f 166/166/1 167/167/1 103/103/1 
f 103/103/1 102/102/1 166/166/1 
f 168/168/1 169/169/1 167/167/1 
f 167/167/1 166/166/1 168/168/1 
f 167/167/1 165/165/1 93/93/1 
f 93/93/1 103/103/1 167/167/1 
f 169/169/1 162/162/1 165/165/1 
f 165/165/1 167/167/1 169/169/1 
f 170/170/1 171/171/1 172/172/1 
f 172/172/1 173/173/1 170/170/1 
f 171/171/1 161/161/1 160/160/1 
f 160/160/1 172/172/1 171/171/1 
f 173/173/1 172/172/1 169/169/1 
f 169/169/1 168/168/1 173/173/1 
f 172/172/1 160/160/1 162/162/1 
f 162/162/1 169/169/1 172/172/1 
f 170/170/1 173/173/1 174/174/1 
f 174/174/1 175/175/1 170/170/1 
f 173/173/1 168/168/1 176/176/1 
f 176/176/1 174/174/1 173/173/1 
f 175/175/1 174/174/1 177/177/1 
f 177/177/1 178/178/1 175/175/1 
f 174/174/1 176/176/1 179/179/1 
f 179/179/1 177/177/1 174/174/1 
f 166/166/1 102/102/1 107/107/1 
f 107/107/1 180/180/1 166/166/1 
f 180/180/1 107/107/1 110/110/1 
f 110/110/1 181/181/1 180/180/1 
f 168/168/1 166/166/1 180/180/1 
f 180/180/1 176/176/1 168/168/1 
f 176/176/1 180/180/1 181/181/1 
f 181/181/1 179/179/1 176/176/1 
f 119/119/1 182/182/1 183/183/1 
f 183/183/1 120/120/1 119/119/1 
f 182/182/1 184/184/1 185/185/1 
f 185/185/1 183/183/1 182/182/1 
f 120/120/1 183/183/1 181/181/1 
f 181/181/1 110/110/1 120/120/1 
f 183/183/1 185/185/1 179/179/1 
f 179/179/1 181/181/1 183/183/1 
f 186/186/1 187/187/1 188/188/1 
f 188/188/1 189/189/1 186/186/1 
f 189/189/1 188/188/1 178/178/1 
f 178/178/1 177/177/1 189/189/1 
f 184/184/1 186/186/1 189/189/1 
f 189/189/1 185/185/1 184/184/1 
f 185/185/1 189/189/1 177/177/1 
f 177/177/1 179/179/1 185/185/1 
f 187/187/1 186/186/1 190/190/1 
f 190/190/1 191/191/1 187/187/1 
f 186/186/1 184/184/1 192/192/1 
f 192/192/1 190/190/1 186/186/1 
f 190/190/1 193/193/1 194/194/1 
f 194/194/1 191/191/1 190/190/1 
f 192/192/1 195/195/1 193/193/1 
f 193/193/1 190/190/1 192/192/1 
f 182/182/1 119/119/1 123/123/1 
f 123/123/1 196/196/1 182/182/1 
f 196/196/1 123/123/1 126/126/1 
f 126/126/1 197/197/1 196/196/1 
f 184/184/1 182/182/1 196/196/1 
f 196/196/1 192/192/1 184/184/1 
f 192/192/1 196/196/1 197/197/1 
f 197/197/1 195/195/1 192/192/1 
f 198/198/1 199/199/1 135/135/1 
f 135/135/1 134/134/1 198/198/1 
f 200/200/1 201/201/1 199/199/1 
f 199/199/1 198/198/1 200/200/1 
f 199/199/1 197/197/1 126/126/1 
f 126/126/1 135/135/1 199/199/1 
f 201/201/1 195/195/1 197/197/1 
f 197/197/1 199/199/1 201/201/1 
f 202/202/1 203/203/1 204/204/1 
f 204/204/1 205/205/1 202/202/1 
f 203/203/1 194/194/1 193/193/1 
f 193/193/1 204/204/1 203/203/1 
f 205/205/1 204/204/1 201/201/1 
f 201/201/1 200/200/1 205/205/1 
f 204/204/1 193/193/1 195/195/1 
f 195/195/1 201/201/1 204/204/1 
f 205/205/1 206/206/1 207/207/1 
f 207/207/1 202/202/1 205/205/1 
f 200/200/1 208/208/1 206/206/1 
f 206/206/1 205/205/1 200/200/1 
f 206/206/1 209/209/1 210/210/1 
f 210/210/1 207/207/1 206/206/1 
f 208/208/1 211/211/1 209/209/1 
f 209/209/1 206/206/1 208/208/1 
f 134/134/1 139/139/1 212/212/1 
f 212/212/1 198/198/1 134/134/1 
f 139/139/1 142/142/1 213/213/1 
f 213/213/1 212/212/1 139/139/1 
f 198/198/1 212/212/1 208/208/1 
f 208/208/1 200/200/1 198/198/1 
f 212/212/1 213/213/1 211/211/1 
f 211/211/1 208/208/1 212/212/1 
f 214/214/1 215/215/1 151/151/1 
f 151/151/1 150/150/1 214/214/1 
f 216/216/1 217/217/1 215/215/1 
f 215/215/1 214/214/1 216/216/1 
f 215/215/1 213/213/1 142/142/1 
f 142/142/1 151/151/1 215/215/1 
f 217/217/1 211/211/1 213/213/1 
f 213/213/1 215/215/1 217/217/1 
f 218/218/1 219/219/1 220/220/1 
f 220/220/1 221/221/1 218/218/1 
f 219/219/1 210/210/1 209/209/1 
f 209/209/1 220/220/1 219/219/1 
f 221/221/1 220/220/1 217/217/1 
f 217/217/1 216/216/1 221/221/1 
f 220/220/1 209/209/1 211/211/1 
f 211/211/1 217/217/1 220/220/1 
f 222/222/1 223/223/1 224/224/1 
f 224/224/1 225/225/1 222/222/1 
f 226/226/1 227/227/1 223/223/1 
f 223/223/1 222/222/1 226/226/1 
f 223/223/1 228/228/1 229/229/1 
f 229/229/1 224/224/1 223/223/1 
f 227/227/1 230/230/1 228/228/1 
f 228/228/1 223/223/1 227/227/1 
f 157/157/1 156/156/1 231/231/1 
f 231/231/1 232/232/1 157/157/1 
f 156/156/1 161/161/1 233/233/1 
f 233/233/1 231/231/1 156/156/1 
f 232/232/1 231/231/1 227/227/1 
f 227/227/1 226/226/1 232/232/1 
f 231/231/1 233/233/1 230/230/1 
f 230/230/1 227/227/1 231/231/1 
f 234/234/1 235/235/1 171/171/1 
f 171/171/1 170/170/1 234/234/1 
f 236/236/1 237/237/1 235/235/1 
f 235/235/1 234/234/1 236/236/1 
f 235/235/1 233/233/1 161/161/1 
f 161/161/1 171/171/1 235/235/1 
f 237/237/1 230/230/1 233/233/1 
f 233/233/1 235/235/1 237/237/1 
f 238/238/1 239/239/1 240/240/1 
f 240/240/1 241/241/1 238/238/1 
f 239/239/1 229/229/1 228/228/1 
f 228/228/1 240/240/1 239/239/1 
f 241/241/1 240/240/1 237/237/1 
f 237/237/1 236/236/1 241/241/1 
f 240/240/1 228/228/1 230/230/1 
f 230/230/1 237/237/1 240/240/1 
f 241/241/1 242/242/1 243/243/1 
f 243/243/1 238/238/1 241/241/1 
f 236/236/1 244/244/1 242/242/1 
f 242/242/1 241/241/1 236/236/1 
f 242/242/1 245/245/1 246/246/1 
f 246/246/1 243/243/1 242/242/1 
f 244/244/1 247/247/1 245/245/1 
f 245/245/1 242/242/1 244/244/1 
f 234/234/1 170/170/1 175/175/1 
f 175/175/1 248/248/1 234/234/1 
f 248/248/1 175/175/1 178/178/1 
f 178/178/1 249/249/1 248/248/1 
f 234/234/1 248/248/1 244/244/1 
f 244/244/1 236/236/1 234/234/1 
f 248/248/1 249/249/1 247/247/1 
f 247/247/1 244/244/1 248/248/1 
f 187/187/1 250/250/1 251/251/1 
f 251/251/1 188/188/1 187/187/1 
f 252/252/1 253/253/1 251/251/1 
f 251/251/1 250/250/1 252/252/1 
f 188/188/1 251/251/1 249/249/1 
f 249/249/1 178/178/1 188/188/1 
f 253/253/1 247/247/1 249/249/1 
f 249/249/1 251/251/1 253/253/1 
f 254/254/1 255/255/1 256/256/1 
f 256/256/1 257/257/1 254/254/1 
f 255/255/1 246/246/1 245/245/1 
f 245/245/1 256/256/1 255/255/1 
f 257/257/1 256/256/1 253/253/1 
f 253/253/1 252/252/1 257/257/1 
f 256/256/1 245/245/1 247/247/1 
f 247/247/1 253/253/1 256/256/1 
f 257/257/1 258/258/1 259/259/1 
f 259/259/1 254/254/1 257/257/1 
f 252/252/1 260/260/1 258/258/1 
f 258/258/1 257/257/1 252/252/1 
f 258/258/1 261/261/1 262/262/1 
f 262/262/1 259/259/1 258/258/1 
f 260/260/1 263/263/1 261/261/1 
f 261/261/1 258/258/1 260/260/1 
f 187/187/1 191/191/1 264/264/1 
f 264/264/1 250/250/1 187/187/1 
f 191/191/1 194/194/1 265/265/1 
f 265/265/1 264/264/1 191/191/1 
f 250/250/1 264/264/1 260/260/1 
f 260/260/1 252/252/1 250/250/1 
f 264/264/1 265/265/1 263/263/1 
f 263/263/1 260/260/1 264/264/1 
f 266/266/1 267/267/1 203/203/1 
f 203/203/1 202/202/1 266/266/1 
f 268/268/1 269/269/1 267/267/1 
f 267/267/1 266/266/1 268/268/1 
f 267/267/1 265/265/1 194/194/1 
f 194/194/1 203/203/1 267/267/1 
f 269/269/1 263/263/1 265/265/1 
f 265/265/1 267/267/1 269/269/1 
f 270/270/1 271/271/1 272/272/1 
f 272/272/1 273/273/1 270/270/1 
f 271/271/1 262/262/1 261/261/1 
f 261/261/1 272/272/1 271/271/1 
f 273/273/1 272/272/1 269/269/1 
f 269/269/1 268/268/1 273/273/1 
f 272/272/1 261/261/1 263/263/1 
f 263/263/1 269/269/1 272/272/1 
f 273/273/1 274/274/1 275/275/1 
f 275/275/1 270/270/1 273/273/1 
f 268/268/1 276/276/1 274/274/1 
f 274/274/1 273/273/1 268/268/1 
f 274/274/1 277/277/1 278/278/1 
f 278/278/1 275/275/1 274/274/1 
f 276/276/1 279/279/1 277/277/1 
f 277/277/1 274/274/1 276/276/1 
f 202/202/1 207/207/1 280/280/1 
f 280/280/1 266/266/1 202/202/1 
f 207/207/1 210/210/1 281/281/1 
f 281/281/1 280/280/1 207/207/1 
f 266/266/1 280/280/1 276/276/1 
f 276/276/1 268/268/1 266/266/1 
f 280/280/1 281/281/1 279/279/1 
f 279/279/1 276/276/1 280/280/1 
f 282/282/1 283/283/1 219/219/1 
f 219/219/1 218/218/1 282/282/1 
f 284/284/1 285/285/1 283/283/1 
f 283/283/1 282/282/1 284/284/1 
f 283/283/1 281/281/1 210/210/1 
f 210/210/1 219/219/1 283/283/1 
f 285/285/1 279/279/1 281/281/1 
f 281/281/1 283/283/1 285/285/1 
f 286/286/1 287/287/1 288/288/1 
f 288/288/1 289/289/1 286/286/1 
f 287/287/1 278/278/1 277/277/1 
f 277/277/1 288/288/1 287/287/1 
f 289/289/1 288/288/1 285/285/1 
f 285/285/1 284/284/1 289/289/1 
f 288/288/1 277/277/1 279/279/1 
f 279/279/1 285/285/1 288/288/1 
# 512 faces

