# 3ds Max Wavefront OBJ Exporter v0.99 - (c)2007 guruware
# File Created: 24.10.2024 23:01:21

mtllib flotador.mtl

#
# object flotador001
#

v  -2.3958 2.5279 0.6883
v  -2.3219 2.5279 0.6981
v  -2.3186 2.4779 0.6854
v  -2.3958 2.4779 0.6751
v  -2.3958 2.5647 0.7243
v  -2.3314 2.5647 0.7330
v  -2.3958 2.5779 0.7736
v  -2.3441 2.5779 0.7806
v  -2.3958 2.5647 0.8231
v  -2.3568 2.5647 0.8283
v  -2.3958 2.5279 0.8591
v  -2.3663 2.5279 0.8629
v  -2.3958 2.4779 0.8724
v  -2.3695 2.4779 0.8759
v  -2.3958 2.4279 0.8591
v  -2.3663 2.4279 0.8629
v  -2.3958 2.3910 0.8231
v  -2.3568 2.3910 0.8283
v  -2.3958 2.3778 0.7736
v  -2.3441 2.3778 0.7806
v  -2.3958 2.3910 0.7243
v  -2.3314 2.3910 0.7330
v  -2.3958 2.4279 0.6883
v  -2.3219 2.4279 0.6981
v  -2.2531 2.5279 0.7265
v  -2.2466 2.4779 0.7151
v  -2.2713 2.5647 0.7579
v  -2.2959 2.5779 0.8004
v  -2.3205 2.5647 0.8432
v  -2.3387 2.5279 0.8746
v  -2.3452 2.4779 0.8859
v  -2.3387 2.4279 0.8746
v  -2.3205 2.3910 0.8432
v  -2.2959 2.3778 0.8004
v  -2.2713 2.3910 0.7579
v  -2.2531 2.4279 0.7265
v  -2.1941 2.5279 0.7720
v  -2.1846 2.4779 0.7625
v  -2.2196 2.5647 0.7974
v  -2.2545 2.5779 0.8323
v  -2.2894 2.5647 0.8673
v  -2.3148 2.5279 0.8927
v  -2.3241 2.4779 0.9019
v  -2.3148 2.4279 0.8927
v  -2.2894 2.3910 0.8673
v  -2.2545 2.3778 0.8323
v  -2.2196 2.3910 0.7974
v  -2.1941 2.4279 0.7720
v  -2.1486 2.5279 0.8310
v  -2.1373 2.4779 0.8242
v  -2.1800 2.5647 0.8491
v  -2.2225 2.5779 0.8738
v  -2.2653 2.5647 0.8984
v  -2.2967 2.5279 0.9163
v  -2.3081 2.4779 0.9230
v  -2.2967 2.4279 0.9163
v  -2.2653 2.3910 0.8984
v  -2.2225 2.3778 0.8738
v  -2.1800 2.3910 0.8491
v  -2.1486 2.4279 0.8310
v  -2.1202 2.5279 0.8997
v  -2.1075 2.4779 0.8962
v  -2.1551 2.5647 0.9092
v  -2.2028 2.5779 0.9219
v  -2.2504 2.5647 0.9347
v  -2.2851 2.5279 0.9439
v  -2.2981 2.4779 0.9474
v  -2.2851 2.4279 0.9439
v  -2.2504 2.3910 0.9347
v  -2.2028 2.3778 0.9219
v  -2.1551 2.3910 0.9092
v  -2.1202 2.4279 0.8997
v  -2.1105 2.5279 0.9736
v  -2.0972 2.4779 0.9736
v  -2.1465 2.5647 0.9736
v  -2.1957 2.5779 0.9736
v  -2.2453 2.5647 0.9736
v  -2.2813 2.5279 0.9736
v  -2.2945 2.4779 0.9736
v  -2.2813 2.4279 0.9736
v  -2.2453 2.3910 0.9736
v  -2.1957 2.3778 0.9736
v  -2.1465 2.3910 0.9736
v  -2.1105 2.4279 0.9736
v  -2.1202 2.5279 1.0475
v  -2.1075 2.4779 1.0508
v  -2.1551 2.5647 1.0381
v  -2.2028 2.5779 1.0253
v  -2.2504 2.5647 1.0126
v  -2.2851 2.5279 1.0031
v  -2.2981 2.4779 0.9999
v  -2.2851 2.4279 1.0031
v  -2.2504 2.3910 1.0126
v  -2.2028 2.3778 1.0253
v  -2.1551 2.3910 1.0381
v  -2.1202 2.4279 1.0475
v  -2.1486 2.5279 1.1163
v  -2.1373 2.4779 1.1228
v  -2.1800 2.5647 1.0982
v  -2.2225 2.5779 1.0735
v  -2.2653 2.5647 1.0489
v  -2.2967 2.5279 1.0308
v  -2.3081 2.4779 1.0243
v  -2.2967 2.4279 1.0308
v  -2.2653 2.3910 1.0489
v  -2.2225 2.3778 1.0735
v  -2.1800 2.3910 1.0982
v  -2.1486 2.4279 1.1163
v  -2.1941 2.5279 1.1753
v  -2.1846 2.4779 1.1848
v  -2.2196 2.5647 1.1499
v  -2.2545 2.5779 1.1149
v  -2.2894 2.5647 1.0800
v  -2.3148 2.5279 1.0546
v  -2.3241 2.4779 1.0451
v  -2.3148 2.4279 1.0546
v  -2.2894 2.3910 1.0800
v  -2.2545 2.3778 1.1149
v  -2.2196 2.3910 1.1499
v  -2.1941 2.4279 1.1753
v  -2.2531 2.5279 1.2208
v  -2.2466 2.4779 1.2321
v  -2.2713 2.5647 1.1894
v  -2.2959 2.5779 1.1469
v  -2.3205 2.5647 1.1041
v  -2.3387 2.5279 1.0727
v  -2.3452 2.4779 1.0613
v  -2.3387 2.4279 1.0727
v  -2.3205 2.3910 1.1041
v  -2.2959 2.3778 1.1469
v  -2.2713 2.3910 1.1894
v  -2.2531 2.4279 1.2208
v  -2.3219 2.5279 1.2492
v  -2.3186 2.4779 1.2619
v  -2.3314 2.5647 1.2143
v  -2.3441 2.5779 1.1666
v  -2.3568 2.5647 1.1190
v  -2.3663 2.5279 1.0841
v  -2.3695 2.4779 1.0714
v  -2.3663 2.4279 1.0841
v  -2.3568 2.3910 1.1190
v  -2.3441 2.3778 1.1666
v  -2.3314 2.3910 1.2143
v  -2.3219 2.4279 1.2492
v  -2.3958 2.5279 1.2589
v  -2.3958 2.4779 1.2722
v  -2.3958 2.5647 1.2229
v  -2.3958 2.5779 1.1734
v  -2.3958 2.5647 1.1241
v  -2.3958 2.5279 1.0881
v  -2.3958 2.4779 1.0749
v  -2.3958 2.4279 1.0881
v  -2.3958 2.3910 1.1241
v  -2.3958 2.3778 1.1734
v  -2.3958 2.3910 1.2229
v  -2.3958 2.4279 1.2589
v  -2.4697 2.5279 1.2492
v  -2.4729 2.4779 1.2619
v  -2.4602 2.5647 1.2143
v  -2.4475 2.5779 1.1666
v  -2.4348 2.5647 1.1190
v  -2.4253 2.5279 1.0841
v  -2.4220 2.4779 1.0714
v  -2.4253 2.4279 1.0841
v  -2.4348 2.3910 1.1190
v  -2.4475 2.3778 1.1666
v  -2.4602 2.3910 1.2143
v  -2.4697 2.4279 1.2492
v  -2.5384 2.5279 1.2208
v  -2.5449 2.4779 1.2321
v  -2.5203 2.5647 1.1894
v  -2.4957 2.5779 1.1469
v  -2.4710 2.5647 1.1041
v  -2.4529 2.5279 1.0727
v  -2.4464 2.4779 1.0613
v  -2.4529 2.4279 1.0727
v  -2.4710 2.3910 1.1041
v  -2.4957 2.3778 1.1469
v  -2.5203 2.3910 1.1894
v  -2.5384 2.4279 1.2208
v  -2.5974 2.5279 1.1753
v  -2.6069 2.4779 1.1848
v  -2.5720 2.5647 1.1499
v  -2.5371 2.5779 1.1149
v  -2.5022 2.5647 1.0800
v  -2.4767 2.5279 1.0546
v  -2.4675 2.4779 1.0451
v  -2.4767 2.4279 1.0546
v  -2.5022 2.3910 1.0800
v  -2.5371 2.3778 1.1149
v  -2.5720 2.3910 1.1499
v  -2.5974 2.4279 1.1753
v  -2.6429 2.5279 1.1163
v  -2.6543 2.4779 1.1228
v  -2.6115 2.5647 1.0982
v  -2.5690 2.5779 1.0735
v  -2.5263 2.5647 1.0489
v  -2.4949 2.5279 1.0308
v  -2.4835 2.4779 1.0243
v  -2.4949 2.4279 1.0308
v  -2.5263 2.3910 1.0489
v  -2.5690 2.3778 1.0735
v  -2.6115 2.3910 1.0982
v  -2.6429 2.4279 1.1163
v  -2.6713 2.5279 1.0475
v  -2.6841 2.4779 1.0508
v  -2.6364 2.5647 1.0381
v  -2.5888 2.5779 1.0253
v  -2.5411 2.5647 1.0126
v  -2.5065 2.5279 1.0031
v  -2.4935 2.4779 0.9999
v  -2.5065 2.4279 1.0031
v  -2.5411 2.3910 1.0126
v  -2.5888 2.3778 1.0253
v  -2.6364 2.3910 1.0381
v  -2.6713 2.4279 1.0475
v  -2.6811 2.5279 0.9736
v  -2.6943 2.4779 0.9736
v  -2.6451 2.5647 0.9736
v  -2.5958 2.5779 0.9736
v  -2.5463 2.5647 0.9736
v  -2.5103 2.5279 0.9736
v  -2.4970 2.4779 0.9736
v  -2.5103 2.4279 0.9736
v  -2.5463 2.3910 0.9736
v  -2.5958 2.3778 0.9736
v  -2.6451 2.3910 0.9736
v  -2.6811 2.4279 0.9736
v  -2.6713 2.5279 0.8997
v  -2.6841 2.4779 0.8962
v  -2.6364 2.5647 0.9092
v  -2.5888 2.5779 0.9219
v  -2.5411 2.5647 0.9347
v  -2.5065 2.5279 0.9439
v  -2.4935 2.4779 0.9474
v  -2.5065 2.4279 0.9439
v  -2.5411 2.3910 0.9347
v  -2.5888 2.3778 0.9219
v  -2.6364 2.3910 0.9092
v  -2.6713 2.4279 0.8997
v  -2.6429 2.5279 0.8310
v  -2.6543 2.4779 0.8242
v  -2.6115 2.5647 0.8491
v  -2.5690 2.5779 0.8738
v  -2.5263 2.5647 0.8984
v  -2.4949 2.5279 0.9163
v  -2.4835 2.4779 0.9230
v  -2.4949 2.4279 0.9163
v  -2.5263 2.3910 0.8984
v  -2.5690 2.3778 0.8738
v  -2.6115 2.3910 0.8491
v  -2.6429 2.4279 0.8310
v  -2.5974 2.5279 0.7720
v  -2.6069 2.4779 0.7625
v  -2.5720 2.5647 0.7974
v  -2.5371 2.5779 0.8323
v  -2.5022 2.5647 0.8673
v  -2.4767 2.5279 0.8927
v  -2.4675 2.4779 0.9019
v  -2.4767 2.4279 0.8927
v  -2.5022 2.3910 0.8673
v  -2.5371 2.3778 0.8323
v  -2.5720 2.3910 0.7974
v  -2.5974 2.4279 0.7720
v  -2.5384 2.5279 0.7265
v  -2.5449 2.4779 0.7151
v  -2.5203 2.5647 0.7579
v  -2.4957 2.5779 0.8004
v  -2.4710 2.5647 0.8432
v  -2.4529 2.5279 0.8746
v  -2.4464 2.4779 0.8859
v  -2.4529 2.4279 0.8746
v  -2.4710 2.3910 0.8432
v  -2.4957 2.3778 0.8004
v  -2.5203 2.3910 0.7579
v  -2.5384 2.4279 0.7265
v  -2.4697 2.5279 0.6981
v  -2.4729 2.4779 0.6854
v  -2.4602 2.5647 0.7330
v  -2.4475 2.5779 0.7806
v  -2.4348 2.5647 0.8283
v  -2.4253 2.5279 0.8629
v  -2.4220 2.4779 0.8759
v  -2.4253 2.4279 0.8629
v  -2.4348 2.3910 0.8283
v  -2.4475 2.3778 0.7806
v  -2.4602 2.3910 0.7330
v  -2.4697 2.4279 0.6981
# 288 vertices

vn -0.0000 0.4909 -0.8712
vn 0.2255 0.4909 -0.8415
vn 0.2588 -0.0000 -0.9659
vn -0.0000 -0.0000 -1.0000
vn -0.0000 0.8567 -0.5158
vn 0.1335 0.8567 -0.4982
vn -0.0000 0.9998 -0.0216
vn 0.0056 0.9998 -0.0208
vn 0.0000 0.8753 0.4835
vn -0.1251 0.8753 0.4670
vn 0.0000 0.5096 0.8604
vn -0.2227 0.5096 0.8311
vn 0.0000 0.0000 1.0000
vn -0.2588 -0.0000 0.9659
vn 0.0000 -0.5096 0.8604
vn -0.2227 -0.5096 0.8311
vn 0.0000 -0.8753 0.4835
vn -0.1251 -0.8753 0.4670
vn -0.0000 -0.9998 -0.0216
vn 0.0056 -0.9998 -0.0208
vn -0.0000 -0.8567 -0.5158
vn 0.1335 -0.8567 -0.4982
vn -0.0000 -0.4909 -0.8712
vn 0.2255 -0.4909 -0.8415
vn 0.4356 0.4909 -0.7545
vn 0.5000 -0.0000 -0.8660
vn 0.2579 0.8567 -0.4467
vn 0.0108 0.9998 -0.0187
vn -0.2417 0.8753 0.4187
vn -0.4302 0.5096 0.7452
vn -0.5000 0.0000 0.8660
vn -0.4302 -0.5096 0.7452
vn -0.2417 -0.8753 0.4187
vn 0.0108 -0.9998 -0.0187
vn 0.2579 -0.8567 -0.4467
vn 0.4356 -0.4909 -0.7545
vn 0.6160 0.4909 -0.6160
vn 0.7071 -0.0000 -0.7071
vn 0.3647 0.8567 -0.3647
vn 0.0152 0.9998 -0.0152
vn -0.3419 0.8753 0.3419
vn -0.6084 0.5096 0.6084
vn -0.7071 0.0000 0.7071
vn -0.6084 -0.5096 0.6084
vn -0.3419 -0.8753 0.3419
vn 0.0152 -0.9998 -0.0152
vn 0.3647 -0.8567 -0.3647
vn 0.6160 -0.4909 -0.6160
vn 0.7545 0.4909 -0.4356
vn 0.8660 -0.0000 -0.5000
vn 0.4467 0.8567 -0.2579
vn 0.0187 0.9998 -0.0108
vn -0.4187 0.8753 0.2417
vn -0.7452 0.5096 0.4302
vn -0.8660 0.0000 0.5000
vn -0.7452 -0.5096 0.4302
vn -0.4187 -0.8753 0.2417
vn 0.0187 -0.9998 -0.0108
vn 0.4467 -0.8567 -0.2579
vn 0.7545 -0.4909 -0.4356
vn 0.8415 0.4909 -0.2255
vn 0.9659 -0.0000 -0.2588
vn 0.4982 0.8567 -0.1335
vn 0.0208 0.9998 -0.0056
vn -0.4670 0.8753 0.1251
vn -0.8311 0.5096 0.2227
vn -0.9659 0.0000 0.2588
vn -0.8311 -0.5096 0.2227
vn -0.4670 -0.8753 0.1251
vn 0.0208 -0.9998 -0.0056
vn 0.4982 -0.8567 -0.1335
vn 0.8415 -0.4909 -0.2255
vn 0.8712 0.4909 -0.0000
vn 1.0000 -0.0000 -0.0000
vn 0.5158 0.8567 -0.0000
vn 0.0216 0.9998 -0.0000
vn -0.4835 0.8753 -0.0000
vn -0.8604 0.5096 -0.0000
vn -1.0000 -0.0000 -0.0000
vn -0.8604 -0.5096 0.0000
vn -0.4835 -0.8753 0.0000
vn 0.0216 -0.9998 -0.0000
vn 0.5158 -0.8567 -0.0000
vn 0.8712 -0.4909 -0.0000
vn 0.8415 0.4909 0.2255
vn 0.9659 -0.0000 0.2588
vn 0.4982 0.8567 0.1335
vn 0.0208 0.9998 0.0056
vn -0.4670 0.8753 -0.1251
vn -0.8311 0.5096 -0.2227
vn -0.9659 0.0000 -0.2588
vn -0.8311 -0.5096 -0.2227
vn -0.4670 -0.8753 -0.1251
vn 0.0208 -0.9998 0.0056
vn 0.4982 -0.8567 0.1335
vn 0.8415 -0.4909 0.2255
vn 0.7545 0.4909 0.4356
vn 0.8660 -0.0000 0.5000
vn 0.4467 0.8567 0.2579
vn 0.0187 0.9998 0.0108
vn -0.4187 0.8753 -0.2417
vn -0.7452 0.5096 -0.4302
vn -0.8660 0.0000 -0.5000
vn -0.7452 -0.5096 -0.4302
vn -0.4187 -0.8753 -0.2417
vn 0.0187 -0.9998 0.0108
vn 0.4467 -0.8567 0.2579
vn 0.7545 -0.4909 0.4356
vn 0.6160 0.4909 0.6160
vn 0.7071 -0.0000 0.7071
vn 0.3647 0.8567 0.3647
vn 0.0152 0.9998 0.0152
vn -0.3419 0.8753 -0.3419
vn -0.6084 0.5096 -0.6084
vn -0.7071 0.0000 -0.7071
vn -0.6084 -0.5096 -0.6084
vn -0.3419 -0.8753 -0.3419
vn 0.0152 -0.9998 0.0152
vn 0.3647 -0.8567 0.3647
vn 0.6160 -0.4909 0.6160
vn 0.4356 0.4909 0.7545
vn 0.5000 -0.0000 0.8660
vn 0.2579 0.8567 0.4467
vn 0.0108 0.9998 0.0187
vn -0.2417 0.8753 -0.4187
vn -0.4302 0.5096 -0.7452
vn -0.5000 0.0000 -0.8660
vn -0.4302 -0.5096 -0.7452
vn -0.2417 -0.8753 -0.4187
vn 0.0108 -0.9998 0.0187
vn 0.2579 -0.8567 0.4467
vn 0.4356 -0.4909 0.7545
vn 0.2255 0.4909 0.8415
vn 0.2588 -0.0000 0.9659
vn 0.1335 0.8567 0.4982
vn 0.0056 0.9998 0.0208
vn -0.1251 0.8753 -0.4670
vn -0.2227 0.5096 -0.8311
vn -0.2588 -0.0000 -0.9659
vn -0.2227 -0.5096 -0.8311
vn -0.1251 -0.8753 -0.4670
vn 0.0056 -0.9998 0.0208
vn 0.1335 -0.8567 0.4982
vn 0.2255 -0.4909 0.8415
vn 0.0000 0.4909 0.8712
vn 0.0000 -0.0000 1.0000
vn 0.0000 0.8567 0.5158
vn 0.0000 0.9998 0.0216
vn 0.0000 0.8753 -0.4835
vn -0.0000 0.5096 -0.8604
vn -0.0000 0.0000 -1.0000
vn -0.0000 -0.5096 -0.8604
vn -0.0000 -0.8753 -0.4835
vn 0.0000 -0.9998 0.0216
vn -0.0000 -0.8567 0.5158
vn 0.0000 -0.4909 0.8712
vn -0.2255 0.4909 0.8415
vn -0.1335 0.8567 0.4982
vn -0.0056 0.9998 0.0208
vn 0.1251 0.8753 -0.4670
vn 0.2227 0.5096 -0.8311
vn 0.2588 0.0000 -0.9659
vn 0.2227 -0.5096 -0.8311
vn 0.1251 -0.8753 -0.4670
vn -0.0056 -0.9998 0.0208
vn -0.1335 -0.8567 0.4982
vn -0.2255 -0.4909 0.8415
vn -0.4356 0.4909 0.7545
vn -0.5000 -0.0000 0.8660
vn -0.2579 0.8567 0.4467
vn -0.0108 0.9998 0.0187
vn 0.2417 0.8753 -0.4187
vn 0.4302 0.5096 -0.7452
vn 0.5000 0.0000 -0.8660
vn 0.4302 -0.5096 -0.7452
vn 0.2417 -0.8753 -0.4187
vn -0.0108 -0.9998 0.0187
vn -0.2579 -0.8567 0.4467
vn -0.4356 -0.4909 0.7545
vn -0.6160 0.4909 0.6160
vn -0.7071 -0.0000 0.7071
vn -0.3647 0.8567 0.3647
vn -0.0152 0.9998 0.0152
vn 0.3419 0.8753 -0.3419
vn 0.6084 0.5096 -0.6084
vn 0.7071 0.0000 -0.7071
vn 0.6084 -0.5096 -0.6084
vn 0.3419 -0.8753 -0.3419
vn -0.0152 -0.9998 0.0152
vn -0.3647 -0.8567 0.3647
vn -0.6160 -0.4909 0.6160
vn -0.7545 0.4909 0.4356
vn -0.8660 -0.0000 0.5000
vn -0.4467 0.8567 0.2579
vn -0.0187 0.9998 0.0108
vn 0.4187 0.8753 -0.2417
vn 0.7452 0.5096 -0.4302
vn 0.8660 0.0000 -0.5000
vn 0.7452 -0.5096 -0.4302
vn 0.4187 -0.8753 -0.2417
vn -0.0187 -0.9998 0.0108
vn -0.4467 -0.8567 0.2579
vn -0.7545 -0.4909 0.4356
vn -0.8415 0.4909 0.2255
vn -0.9659 -0.0000 0.2588
vn -0.4982 0.8567 0.1335
vn -0.0208 0.9998 0.0056
vn 0.4670 0.8753 -0.1251
vn 0.8311 0.5096 -0.2227
vn 0.8311 -0.5096 -0.2227
vn 0.4670 -0.8753 -0.1251
vn -0.0208 -0.9998 0.0056
vn -0.4982 -0.8567 0.1335
vn -0.8415 -0.4909 0.2255
vn -0.8712 0.4909 0.0000
vn -1.0000 -0.0000 0.0000
vn -0.5158 0.8567 0.0000
vn -0.0216 0.9998 0.0000
vn 0.4835 0.8753 -0.0000
vn 0.8604 0.5096 -0.0000
vn 1.0000 0.0000 -0.0000
vn 0.8604 -0.5096 -0.0000
vn 0.4835 -0.8753 -0.0000
vn -0.0216 -0.9998 0.0000
vn -0.5158 -0.8567 0.0000
vn -0.8712 -0.4909 0.0000
vn -0.8415 0.4909 -0.2255
vn -0.9659 -0.0000 -0.2588
vn -0.4982 0.8567 -0.1335
vn -0.0208 0.9998 -0.0056
vn 0.4670 0.8753 0.1251
vn 0.8311 0.5096 0.2227
vn 0.9659 0.0000 0.2588
vn 0.8311 -0.5095 0.2227
vn 0.4670 -0.8753 0.1251
vn -0.0208 -0.9998 -0.0056
vn -0.4982 -0.8567 -0.1335
vn -0.8415 -0.4909 -0.2255
vn -0.7545 0.4909 -0.4356
vn -0.8660 -0.0000 -0.5000
vn -0.4467 0.8567 -0.2579
vn -0.0187 0.9998 -0.0108
vn 0.4187 0.8753 0.2417
vn 0.7452 0.5096 0.4302
vn 0.8660 0.0000 0.5000
vn 0.7452 -0.5096 0.4302
vn 0.4187 -0.8753 0.2417
vn -0.0187 -0.9998 -0.0108
vn -0.4467 -0.8567 -0.2579
vn -0.7545 -0.4909 -0.4356
vn -0.6160 0.4909 -0.6160
vn -0.7071 -0.0000 -0.7071
vn -0.3647 0.8567 -0.3647
vn -0.0152 0.9998 -0.0152
vn 0.3419 0.8753 0.3419
vn 0.6084 0.5096 0.6084
vn 0.7071 0.0000 0.7071
vn 0.6084 -0.5096 0.6084
vn 0.3419 -0.8753 0.3419
vn -0.0152 -0.9998 -0.0152
vn -0.3647 -0.8567 -0.3647
vn -0.6160 -0.4909 -0.6160
vn -0.4356 0.4909 -0.7545
vn -0.5000 -0.0000 -0.8660
vn -0.2579 0.8567 -0.4467
vn -0.0108 0.9998 -0.0187
vn 0.2417 0.8753 0.4187
vn 0.4302 0.5096 0.7452
vn 0.5000 0.0000 0.8660
vn 0.4302 -0.5096 0.7452
vn 0.2417 -0.8753 0.4187
vn -0.0108 -0.9998 -0.0187
vn -0.2579 -0.8567 -0.4467
vn -0.4356 -0.4909 -0.7545
vn -0.2255 0.4909 -0.8415
vn -0.1335 0.8567 -0.4982
vn -0.0056 0.9998 -0.0208
vn 0.1251 0.8753 0.4670
vn 0.2227 0.5096 0.8311
vn 0.2588 0.0000 0.9659
vn 0.2227 -0.5095 0.8311
vn 0.1251 -0.8753 0.4670
vn -0.0056 -0.9998 -0.0208
vn -0.1335 -0.8567 -0.4982
vn -0.2255 -0.4909 -0.8415
# 285 vertex normals

vt 0.0833 0.0000 0.0000
vt 0.0833 0.0417 0.0000
vt 0.0000 0.0417 0.0000
vt 0.0000 0.0000 0.0000
vt 0.1667 0.0000 0.0000
vt 0.1667 0.0417 0.0000
vt 0.2500 0.0000 0.0000
vt 0.2500 0.0417 0.0000
vt 0.3333 0.0000 0.0000
vt 0.3333 0.0417 0.0000
vt 0.4167 0.0000 0.0000
vt 0.4167 0.0417 0.0000
vt 0.5000 0.0000 0.0000
vt 0.5000 0.0417 0.0000
vt 0.5833 0.0000 0.0000
vt 0.5833 0.0417 0.0000
vt 0.6667 0.0000 0.0000
vt 0.6667 0.0417 0.0000
vt 0.7500 0.0000 0.0000
vt 0.7500 0.0417 0.0000
vt 0.8333 0.0000 0.0000
vt 0.8333 0.0417 0.0000
vt 0.9167 0.0000 0.0000
vt 0.9167 0.0417 0.0000
vt 1.0000 0.0000 0.0000
vt 1.0000 0.0417 0.0000
vt 0.0833 0.0833 0.0000
vt 0.0000 0.0833 0.0000
vt 0.1667 0.0833 0.0000
vt 0.2500 0.0833 0.0000
vt 0.3333 0.0833 0.0000
vt 0.4167 0.0833 0.0000
vt 0.5000 0.0833 0.0000
vt 0.5833 0.0833 0.0000
vt 0.6667 0.0833 0.0000
vt 0.7500 0.0833 0.0000
vt 0.8333 0.0833 0.0000
vt 0.9167 0.0833 0.0000
vt 1.0000 0.0833 0.0000
vt 0.0833 0.1250 0.0000
vt 0.0000 0.1250 0.0000
vt 0.1667 0.1250 0.0000
vt 0.2500 0.1250 0.0000
vt 0.3333 0.1250 0.0000
vt 0.4167 0.1250 0.0000
vt 0.5000 0.1250 0.0000
vt 0.5833 0.1250 0.0000
vt 0.6667 0.1250 0.0000
vt 0.7500 0.1250 0.0000
vt 0.8333 0.1250 0.0000
vt 0.9167 0.1250 0.0000
vt 1.0000 0.1250 0.0000
vt 0.0833 0.1667 0.0000
vt 0.0000 0.1667 0.0000
vt 0.1667 0.1667 0.0000
vt 0.2500 0.1667 0.0000
vt 0.3333 0.1667 0.0000
vt 0.4167 0.1667 0.0000
vt 0.5000 0.1667 0.0000
vt 0.5833 0.1667 0.0000
vt 0.6667 0.1667 0.0000
vt 0.7500 0.1667 0.0000
vt 0.8333 0.1667 0.0000
vt 0.9167 0.1667 0.0000
vt 1.0000 0.1667 0.0000
vt 0.0833 0.2083 0.0000
vt 0.0000 0.2083 0.0000
vt 0.1667 0.2083 0.0000
vt 0.2500 0.2083 0.0000
vt 0.3333 0.2083 0.0000
vt 0.4167 0.2083 0.0000
vt 0.5000 0.2083 0.0000
vt 0.5833 0.2083 0.0000
vt 0.6667 0.2083 0.0000
vt 0.7500 0.2083 0.0000
vt 0.8333 0.2083 0.0000
vt 0.9167 0.2083 0.0000
vt 1.0000 0.2083 0.0000
vt 0.0833 0.2500 0.0000
vt 0.0000 0.2500 0.0000
vt 0.1667 0.2500 0.0000
vt 0.2500 0.2500 0.0000
vt 0.3333 0.2500 0.0000
vt 0.4167 0.2500 0.0000
vt 0.5000 0.2500 0.0000
vt 0.5833 0.2500 0.0000
vt 0.6667 0.2500 0.0000
vt 0.7500 0.2500 0.0000
vt 0.8333 0.2500 0.0000
vt 0.9167 0.2500 0.0000
vt 1.0000 0.2500 0.0000
vt 0.0833 0.2917 0.0000
vt 0.0000 0.2917 0.0000
vt 0.1667 0.2917 0.0000
vt 0.2500 0.2917 0.0000
vt 0.3333 0.2917 0.0000
vt 0.4167 0.2917 0.0000
vt 0.5000 0.2917 0.0000
vt 0.5833 0.2917 0.0000
vt 0.6667 0.2917 0.0000
vt 0.7500 0.2917 0.0000
vt 0.8333 0.2917 0.0000
vt 0.9167 0.2917 0.0000
vt 1.0000 0.2917 0.0000
vt 0.0833 0.3333 0.0000
vt 0.0000 0.3333 0.0000
vt 0.1667 0.3333 0.0000
vt 0.2500 0.3333 0.0000
vt 0.3333 0.3333 0.0000
vt 0.4167 0.3333 0.0000
vt 0.5000 0.3333 0.0000
vt 0.5833 0.3333 0.0000
vt 0.6667 0.3333 0.0000
vt 0.7500 0.3333 0.0000
vt 0.8333 0.3333 0.0000
vt 0.9167 0.3333 0.0000
vt 1.0000 0.3333 0.0000
vt 0.0833 0.3750 0.0000
vt 0.0000 0.3750 0.0000
vt 0.1667 0.3750 0.0000
vt 0.2500 0.3750 0.0000
vt 0.3333 0.3750 0.0000
vt 0.4167 0.3750 0.0000
vt 0.5000 0.3750 0.0000
vt 0.5833 0.3750 0.0000
vt 0.6667 0.3750 0.0000
vt 0.7500 0.3750 0.0000
vt 0.8333 0.3750 0.0000
vt 0.9167 0.3750 0.0000
vt 1.0000 0.3750 0.0000
vt 0.0833 0.4167 0.0000
vt 0.0000 0.4167 0.0000
vt 0.1667 0.4167 0.0000
vt 0.2500 0.4167 0.0000
vt 0.3333 0.4167 0.0000
vt 0.4167 0.4167 0.0000
vt 0.5000 0.4167 0.0000
vt 0.5833 0.4167 0.0000
vt 0.6667 0.4167 0.0000
vt 0.7500 0.4167 0.0000
vt 0.8333 0.4167 0.0000
vt 0.9167 0.4167 0.0000
vt 1.0000 0.4167 0.0000
vt 0.0833 0.4583 0.0000
vt 0.0000 0.4583 0.0000
vt 0.1667 0.4583 0.0000
vt 0.2500 0.4583 0.0000
vt 0.3333 0.4583 0.0000
vt 0.4167 0.4583 0.0000
vt 0.5000 0.4583 0.0000
vt 0.5833 0.4583 0.0000
vt 0.6667 0.4583 0.0000
vt 0.7500 0.4583 0.0000
vt 0.8333 0.4583 0.0000
vt 0.9167 0.4583 0.0000
vt 1.0000 0.4583 0.0000
vt 0.0833 0.5000 0.0000
vt 0.0000 0.5000 0.0000
vt 0.1667 0.5000 0.0000
vt 0.2500 0.5000 0.0000
vt 0.3333 0.5000 0.0000
vt 0.4167 0.5000 0.0000
vt 0.5000 0.5000 0.0000
vt 0.5833 0.5000 0.0000
vt 0.6667 0.5000 0.0000
vt 0.7500 0.5000 0.0000
vt 0.8333 0.5000 0.0000
vt 0.9167 0.5000 0.0000
vt 1.0000 0.5000 0.0000
vt 0.0833 0.5417 0.0000
vt 0.0000 0.5417 0.0000
vt 0.1667 0.5417 0.0000
vt 0.2500 0.5417 0.0000
vt 0.3333 0.5417 0.0000
vt 0.4167 0.5417 0.0000
vt 0.5000 0.5417 0.0000
vt 0.5833 0.5417 0.0000
vt 0.6667 0.5417 0.0000
vt 0.7500 0.5417 0.0000
vt 0.8333 0.5417 0.0000
vt 0.9167 0.5417 0.0000
vt 1.0000 0.5417 0.0000
vt 0.0833 0.5833 0.0000
vt 0.0000 0.5833 0.0000
vt 0.1667 0.5833 0.0000
vt 0.2500 0.5833 0.0000
vt 0.3333 0.5833 0.0000
vt 0.4167 0.5833 0.0000
vt 0.5000 0.5833 0.0000
vt 0.5833 0.5833 0.0000
vt 0.6667 0.5833 0.0000
vt 0.7500 0.5833 0.0000
vt 0.8333 0.5833 0.0000
vt 0.9167 0.5833 0.0000
vt 1.0000 0.5833 0.0000
vt 0.0833 0.6250 0.0000
vt 0.0000 0.6250 0.0000
vt 0.1667 0.6250 0.0000
vt 0.2500 0.6250 0.0000
vt 0.3333 0.6250 0.0000
vt 0.4167 0.6250 0.0000
vt 0.5000 0.6250 0.0000
vt 0.5833 0.6250 0.0000
vt 0.6667 0.6250 0.0000
vt 0.7500 0.6250 0.0000
vt 0.8333 0.6250 0.0000
vt 0.9167 0.6250 0.0000
vt 1.0000 0.6250 0.0000
vt 0.0833 0.6667 0.0000
vt 0.0000 0.6667 0.0000
vt 0.1667 0.6667 0.0000
vt 0.2500 0.6667 0.0000
vt 0.3333 0.6667 0.0000
vt 0.4167 0.6667 0.0000
vt 0.5000 0.6667 0.0000
vt 0.5833 0.6667 0.0000
vt 0.6667 0.6667 0.0000
vt 0.7500 0.6667 0.0000
vt 0.8333 0.6667 0.0000
vt 0.9167 0.6667 0.0000
vt 1.0000 0.6667 0.0000
vt 0.0833 0.7083 0.0000
vt 0.0000 0.7083 0.0000
vt 0.1667 0.7083 0.0000
vt 0.2500 0.7083 0.0000
vt 0.3333 0.7083 0.0000
vt 0.4167 0.7083 0.0000
vt 0.5000 0.7083 0.0000
vt 0.5833 0.7083 0.0000
vt 0.6667 0.7083 0.0000
vt 0.7500 0.7083 0.0000
vt 0.8333 0.7083 0.0000
vt 0.9167 0.7083 0.0000
vt 1.0000 0.7083 0.0000
vt 0.0833 0.7500 0.0000
vt 0.0000 0.7500 0.0000
vt 0.1667 0.7500 0.0000
vt 0.2500 0.7500 0.0000
vt 0.3333 0.7500 0.0000
vt 0.4167 0.7500 0.0000
vt 0.5000 0.7500 0.0000
vt 0.5833 0.7500 0.0000
vt 0.6667 0.7500 0.0000
vt 0.7500 0.7500 0.0000
vt 0.8333 0.7500 0.0000
vt 0.9167 0.7500 0.0000
vt 1.0000 0.7500 0.0000
vt 0.0833 0.7917 0.0000
vt 0.0000 0.7917 0.0000
vt 0.1667 0.7917 0.0000
vt 0.2500 0.7917 0.0000
vt 0.3333 0.7917 0.0000
vt 0.4167 0.7917 0.0000
vt 0.5000 0.7917 0.0000
vt 0.5833 0.7917 0.0000
vt 0.6667 0.7917 0.0000
vt 0.7500 0.7917 0.0000
vt 0.8333 0.7917 0.0000
vt 0.9167 0.7917 0.0000
vt 1.0000 0.7917 0.0000
vt 0.0833 0.8333 0.0000
vt 0.0000 0.8333 0.0000
vt 0.1667 0.8333 0.0000
vt 0.2500 0.8333 0.0000
vt 0.3333 0.8333 0.0000
vt 0.4167 0.8333 0.0000
vt 0.5000 0.8333 0.0000
vt 0.5833 0.8333 0.0000
vt 0.6667 0.8333 0.0000
vt 0.7500 0.8333 0.0000
vt 0.8333 0.8333 0.0000
vt 0.9167 0.8333 0.0000
vt 1.0000 0.8333 0.0000
vt 0.0833 0.8750 0.0000
vt 0.0000 0.8750 0.0000
vt 0.1667 0.8750 0.0000
vt 0.2500 0.8750 0.0000
vt 0.3333 0.8750 0.0000
vt 0.4167 0.8750 0.0000
vt 0.5000 0.8750 0.0000
vt 0.5833 0.8750 0.0000
vt 0.6667 0.8750 0.0000
vt 0.7500 0.8750 0.0000
vt 0.8333 0.8750 0.0000
vt 0.9167 0.8750 0.0000
vt 1.0000 0.8750 0.0000
vt 0.0833 0.9167 0.0000
vt 0.0000 0.9167 0.0000
vt 0.1667 0.9167 0.0000
vt 0.2500 0.9167 0.0000
vt 0.3333 0.9167 0.0000
vt 0.4167 0.9167 0.0000
vt 0.5000 0.9167 0.0000
vt 0.5833 0.9167 0.0000
vt 0.6667 0.9167 0.0000
vt 0.7500 0.9167 0.0000
vt 0.8333 0.9167 0.0000
vt 0.9167 0.9167 0.0000
vt 1.0000 0.9167 0.0000
vt 0.0833 0.9583 0.0000
vt 0.0000 0.9583 0.0000
vt 0.1667 0.9583 0.0000
vt 0.2500 0.9583 0.0000
vt 0.3333 0.9583 0.0000
vt 0.4167 0.9583 0.0000
vt 0.5000 0.9583 0.0000
vt 0.5833 0.9583 0.0000
vt 0.6667 0.9583 0.0000
vt 0.7500 0.9583 0.0000
vt 0.8333 0.9583 0.0000
vt 0.9167 0.9583 0.0000
vt 1.0000 0.9583 0.0000
vt 0.0833 1.0000 0.0000
vt 0.0000 1.0000 0.0000
vt 0.1667 1.0000 0.0000
vt 0.2500 1.0000 0.0000
vt 0.3333 1.0000 0.0000
vt 0.4167 1.0000 0.0000
vt 0.5000 1.0000 0.0000
vt 0.5833 1.0000 0.0000
vt 0.6667 1.0000 0.0000
vt 0.7500 1.0000 0.0000
vt 0.8333 1.0000 0.0000
vt 0.9167 1.0000 0.0000
vt 1.0000 1.0000 0.0000
# 325 texture coords

o flotador001
g flotador001
usemtl Flotador_wire_135006006
s 1
f 1/1/1 2/2/2 3/3/3 4/4/4 
f 5/5/5 6/6/6 2/2/2 1/1/1 
f 7/7/7 8/8/8 6/6/6 5/5/5 
f 9/9/9 10/10/10 8/8/8 7/7/7 
f 11/11/11 12/12/12 10/10/10 9/9/9 
f 13/13/13 14/14/14 12/12/12 11/11/11 
f 15/15/15 16/16/16 14/14/14 13/13/13 
f 17/17/17 18/18/18 16/16/16 15/15/15 
f 19/19/19 20/20/20 18/18/18 17/17/17 
f 21/21/21 22/22/22 20/20/20 19/19/19 
f 23/23/23 24/24/24 22/22/22 21/21/21 
f 4/25/4 3/26/3 24/24/24 23/23/23 
f 2/2/2 25/27/25 26/28/26 3/3/3 
f 6/6/6 27/29/27 25/27/25 2/2/2 
f 8/8/8 28/30/28 27/29/27 6/6/6 
f 10/10/10 29/31/29 28/30/28 8/8/8 
f 12/12/12 30/32/30 29/31/29 10/10/10 
f 14/14/14 31/33/31 30/32/30 12/12/12 
f 16/16/16 32/34/32 31/33/31 14/14/14 
f 18/18/18 33/35/33 32/34/32 16/16/16 
f 20/20/20 34/36/34 33/35/33 18/18/18 
f 22/22/22 35/37/35 34/36/34 20/20/20 
f 24/24/24 36/38/36 35/37/35 22/22/22 
f 3/26/3 26/39/26 36/38/36 24/24/24 
f 25/27/25 37/40/37 38/41/38 26/28/26 
f 27/29/27 39/42/39 37/40/37 25/27/25 
f 28/30/28 40/43/40 39/42/39 27/29/27 
f 29/31/29 41/44/41 40/43/40 28/30/28 
f 30/32/30 42/45/42 41/44/41 29/31/29 
f 31/33/31 43/46/43 42/45/42 30/32/30 
f 32/34/32 44/47/44 43/46/43 31/33/31 
f 33/35/33 45/48/45 44/47/44 32/34/32 
f 34/36/34 46/49/46 45/48/45 33/35/33 
f 35/37/35 47/50/47 46/49/46 34/36/34 
f 36/38/36 48/51/48 47/50/47 35/37/35 
f 26/39/26 38/52/38 48/51/48 36/38/36 
f 37/40/37 49/53/49 50/54/50 38/41/38 
f 39/42/39 51/55/51 49/53/49 37/40/37 
f 40/43/40 52/56/52 51/55/51 39/42/39 
f 41/44/41 53/57/53 52/56/52 40/43/40 
f 42/45/42 54/58/54 53/57/53 41/44/41 
f 43/46/43 55/59/55 54/58/54 42/45/42 
f 44/47/44 56/60/56 55/59/55 43/46/43 
f 45/48/45 57/61/57 56/60/56 44/47/44 
f 46/49/46 58/62/58 57/61/57 45/48/45 
f 47/50/47 59/63/59 58/62/58 46/49/46 
f 48/51/48 60/64/60 59/63/59 47/50/47 
f 38/52/38 50/65/50 60/64/60 48/51/48 
f 49/53/49 61/66/61 62/67/62 50/54/50 
f 51/55/51 63/68/63 61/66/61 49/53/49 
f 52/56/52 64/69/64 63/68/63 51/55/51 
f 53/57/53 65/70/65 64/69/64 52/56/52 
f 54/58/54 66/71/66 65/70/65 53/57/53 
f 55/59/55 67/72/67 66/71/66 54/58/54 
f 56/60/56 68/73/68 67/72/67 55/59/55 
f 57/61/57 69/74/69 68/73/68 56/60/56 
f 58/62/58 70/75/70 69/74/69 57/61/57 
f 59/63/59 71/76/71 70/75/70 58/62/58 
f 60/64/60 72/77/72 71/76/71 59/63/59 
f 50/65/50 62/78/62 72/77/72 60/64/60 
f 61/66/61 73/79/73 74/80/74 62/67/62 
f 63/68/63 75/81/75 73/79/73 61/66/61 
f 64/69/64 76/82/76 75/81/75 63/68/63 
f 65/70/65 77/83/77 76/82/76 64/69/64 
f 66/71/66 78/84/78 77/83/77 65/70/65 
f 67/72/67 79/85/79 78/84/78 66/71/66 
f 68/73/68 80/86/80 79/85/79 67/72/67 
f 69/74/69 81/87/81 80/86/80 68/73/68 
f 70/75/70 82/88/82 81/87/81 69/74/69 
f 71/76/71 83/89/83 82/88/82 70/75/70 
f 72/77/72 84/90/84 83/89/83 71/76/71 
f 62/78/62 74/91/74 84/90/84 72/77/72 
f 73/79/73 85/92/85 86/93/86 74/80/74 
f 75/81/75 87/94/87 85/92/85 73/79/73 
f 76/82/76 88/95/88 87/94/87 75/81/75 
f 77/83/77 89/96/89 88/95/88 76/82/76 
f 78/84/78 90/97/90 89/96/89 77/83/77 
f 79/85/79 91/98/91 90/97/90 78/84/78 
f 80/86/80 92/99/92 91/98/91 79/85/79 
f 81/87/81 93/100/93 92/99/92 80/86/80 
f 82/88/82 94/101/94 93/100/93 81/87/81 
f 83/89/83 95/102/95 94/101/94 82/88/82 
f 84/90/84 96/103/96 95/102/95 83/89/83 
f 74/91/74 86/104/86 96/103/96 84/90/84 
f 85/92/85 97/105/97 98/106/98 86/93/86 
f 87/94/87 99/107/99 97/105/97 85/92/85 
f 88/95/88 100/108/100 99/107/99 87/94/87 
f 89/96/89 101/109/101 100/108/100 88/95/88 
f 90/97/90 102/110/102 101/109/101 89/96/89 
f 91/98/91 103/111/103 102/110/102 90/97/90 
f 92/99/92 104/112/104 103/111/103 91/98/91 
f 93/100/93 105/113/105 104/112/104 92/99/92 
f 94/101/94 106/114/106 105/113/105 93/100/93 
f 95/102/95 107/115/107 106/114/106 94/101/94 
f 96/103/96 108/116/108 107/115/107 95/102/95 
f 86/104/86 98/117/98 108/116/108 96/103/96 
f 97/105/97 109/118/109 110/119/110 98/106/98 
f 99/107/99 111/120/111 109/118/109 97/105/97 
f 100/108/100 112/121/112 111/120/111 99/107/99 
f 101/109/101 113/122/113 112/121/112 100/108/100 
f 102/110/102 114/123/114 113/122/113 101/109/101 
f 103/111/103 115/124/115 114/123/114 102/110/102 
f 104/112/104 116/125/116 115/124/115 103/111/103 
f 105/113/105 117/126/117 116/125/116 104/112/104 
f 106/114/106 118/127/118 117/126/117 105/113/105 
f 107/115/107 119/128/119 118/127/118 106/114/106 
f 108/116/108 120/129/120 119/128/119 107/115/107 
f 98/117/98 110/130/110 120/129/120 108/116/108 
f 109/118/109 121/131/121 122/132/122 110/119/110 
f 111/120/111 123/133/123 121/131/121 109/118/109 
f 112/121/112 124/134/124 123/133/123 111/120/111 
f 113/122/113 125/135/125 124/134/124 112/121/112 
f 114/123/114 126/136/126 125/135/125 113/122/113 
f 115/124/115 127/137/127 126/136/126 114/123/114 
f 116/125/116 128/138/128 127/137/127 115/124/115 
f 117/126/117 129/139/129 128/138/128 116/125/116 
f 118/127/118 130/140/130 129/139/129 117/126/117 
f 119/128/119 131/141/131 130/140/130 118/127/118 
f 120/129/120 132/142/132 131/141/131 119/128/119 
f 110/130/110 122/143/122 132/142/132 120/129/120 
f 121/131/121 133/144/133 134/145/134 122/132/122 
f 123/133/123 135/146/135 133/144/133 121/131/121 
f 124/134/124 136/147/136 135/146/135 123/133/123 
f 125/135/125 137/148/137 136/147/136 124/134/124 
f 126/136/126 138/149/138 137/148/137 125/135/125 
f 127/137/127 139/150/139 138/149/138 126/136/126 
f 128/138/128 140/151/140 139/150/139 127/137/127 
f 129/139/129 141/152/141 140/151/140 128/138/128 
f 130/140/130 142/153/142 141/152/141 129/139/129 
f 131/141/131 143/154/143 142/153/142 130/140/130 
f 132/142/132 144/155/144 143/154/143 131/141/131 
f 122/143/122 134/156/134 144/155/144 132/142/132 
f 133/144/133 145/157/145 146/158/146 134/145/134 
f 135/146/135 147/159/147 145/157/145 133/144/133 
f 136/147/136 148/160/148 147/159/147 135/146/135 
f 137/148/137 149/161/149 148/160/148 136/147/136 
f 138/149/138 150/162/150 149/161/149 137/148/137 
f 139/150/139 151/163/151 150/162/150 138/149/138 
f 140/151/140 152/164/152 151/163/151 139/150/139 
f 141/152/141 153/165/153 152/164/152 140/151/140 
f 142/153/142 154/166/154 153/165/153 141/152/141 
f 143/154/143 155/167/155 154/166/154 142/153/142 
f 144/155/144 156/168/156 155/167/155 143/154/143 
f 134/156/134 146/169/146 156/168/156 144/155/144 
f 145/157/145 157/170/157 158/171/14 146/158/146 
f 147/159/147 159/172/158 157/170/157 145/157/145 
f 148/160/148 160/173/159 159/172/158 147/159/147 
f 149/161/149 161/174/160 160/173/159 148/160/148 
f 150/162/150 162/175/161 161/174/160 149/161/149 
f 151/163/151 163/176/162 162/175/161 150/162/150 
f 152/164/152 164/177/163 163/176/162 151/163/151 
f 153/165/153 165/178/164 164/177/163 152/164/152 
f 154/166/154 166/179/165 165/178/164 153/165/153 
f 155/167/155 167/180/166 166/179/165 154/166/154 
f 156/168/156 168/181/167 167/180/166 155/167/155 
f 146/169/146 158/182/14 168/181/167 156/168/156 
f 157/170/157 169/183/168 170/184/169 158/171/14 
f 159/172/158 171/185/170 169/183/168 157/170/157 
f 160/173/159 172/186/171 171/185/170 159/172/158 
f 161/174/160 173/187/172 172/186/171 160/173/159 
f 162/175/161 174/188/173 173/187/172 161/174/160 
f 163/176/162 175/189/174 174/188/173 162/175/161 
f 164/177/163 176/190/175 175/189/174 163/176/162 
f 165/178/164 177/191/176 176/190/175 164/177/163 
f 166/179/165 178/192/177 177/191/176 165/178/164 
f 167/180/166 179/193/178 178/192/177 166/179/165 
f 168/181/167 180/194/179 179/193/178 167/180/166 
f 158/182/14 170/195/169 180/194/179 168/181/167 
f 169/183/168 181/196/180 182/197/181 170/184/169 
f 171/185/170 183/198/182 181/196/180 169/183/168 
f 172/186/171 184/199/183 183/198/182 171/185/170 
f 173/187/172 185/200/184 184/199/183 172/186/171 
f 174/188/173 186/201/185 185/200/184 173/187/172 
f 175/189/174 187/202/186 186/201/185 174/188/173 
f 176/190/175 188/203/187 187/202/186 175/189/174 
f 177/191/176 189/204/188 188/203/187 176/190/175 
f 178/192/177 190/205/189 189/204/188 177/191/176 
f 179/193/178 191/206/190 190/205/189 178/192/177 
f 180/194/179 192/207/191 191/206/190 179/193/178 
f 170/195/169 182/208/181 192/207/191 180/194/179 
f 181/196/180 193/209/192 194/210/193 182/197/181 
f 183/198/182 195/211/194 193/209/192 181/196/180 
f 184/199/183 196/212/195 195/211/194 183/198/182 
f 185/200/184 197/213/196 196/212/195 184/199/183 
f 186/201/185 198/214/197 197/213/196 185/200/184 
f 187/202/186 199/215/198 198/214/197 186/201/185 
f 188/203/187 200/216/199 199/215/198 187/202/186 
f 189/204/188 201/217/200 200/216/199 188/203/187 
f 190/205/189 202/218/201 201/217/200 189/204/188 
f 191/206/190 203/219/202 202/218/201 190/205/189 
f 192/207/191 204/220/203 203/219/202 191/206/190 
f 182/208/181 194/221/193 204/220/203 192/207/191 
f 193/209/192 205/222/204 206/223/205 194/210/193 
f 195/211/194 207/224/206 205/222/204 193/209/192 
f 196/212/195 208/225/207 207/224/206 195/211/194 
f 197/213/196 209/226/208 208/225/207 196/212/195 
f 198/214/197 210/227/209 209/226/208 197/213/196 
f 199/215/198 211/228/62 210/227/209 198/214/197 
f 200/216/199 212/229/210 211/228/62 199/215/198 
f 201/217/200 213/230/211 212/229/210 200/216/199 
f 202/218/201 214/231/212 213/230/211 201/217/200 
f 203/219/202 215/232/213 214/231/212 202/218/201 
f 204/220/203 216/233/214 215/232/213 203/219/202 
f 194/221/193 206/234/205 216/233/214 204/220/203 
f 205/222/204 217/235/215 218/236/216 206/223/205 
f 207/224/206 219/237/217 217/235/215 205/222/204 
f 208/225/207 220/238/218 219/237/217 207/224/206 
f 209/226/208 221/239/219 220/238/218 208/225/207 
f 210/227/209 222/240/220 221/239/219 209/226/208 
f 211/228/62 223/241/221 222/240/220 210/227/209 
f 212/229/210 224/242/222 223/241/221 211/228/62 
f 213/230/211 225/243/223 224/242/222 212/229/210 
f 214/231/212 226/244/224 225/243/223 213/230/211 
f 215/232/213 227/245/225 226/244/224 214/231/212 
f 216/233/214 228/246/226 227/245/225 215/232/213 
f 206/234/205 218/247/216 228/246/226 216/233/214 
f 217/235/215 229/248/227 230/249/228 218/236/216 
f 219/237/217 231/250/229 229/248/227 217/235/215 
f 220/238/218 232/251/230 231/250/229 219/237/217 
f 221/239/219 233/252/231 232/251/230 220/238/218 
f 222/240/220 234/253/232 233/252/231 221/239/219 
f 223/241/221 235/254/233 234/253/232 222/240/220 
f 224/242/222 236/255/234 235/254/233 223/241/221 
f 225/243/223 237/256/235 236/255/234 224/242/222 
f 226/244/224 238/257/236 237/256/235 225/243/223 
f 227/245/225 239/258/237 238/257/236 226/244/224 
f 228/246/226 240/259/238 239/258/237 227/245/225 
f 218/247/216 230/260/228 240/259/238 228/246/226 
f 229/248/227 241/261/239 242/262/240 230/249/228 
f 231/250/229 243/263/241 241/261/239 229/248/227 
f 232/251/230 244/264/242 243/263/241 231/250/229 
f 233/252/231 245/265/243 244/264/242 232/251/230 
f 234/253/232 246/266/244 245/265/243 233/252/231 
f 235/254/233 247/267/245 246/266/244 234/253/232 
f 236/255/234 248/268/246 247/267/245 235/254/233 
f 237/256/235 249/269/247 248/268/246 236/255/234 
f 238/257/236 250/270/248 249/269/247 237/256/235 
f 239/258/237 251/271/249 250/270/248 238/257/236 
f 240/259/238 252/272/250 251/271/249 239/258/237 
f 230/260/228 242/273/240 252/272/250 240/259/238 
f 241/261/239 253/274/251 254/275/252 242/262/240 
f 243/263/241 255/276/253 253/274/251 241/261/239 
f 244/264/242 256/277/254 255/276/253 243/263/241 
f 245/265/243 257/278/255 256/277/254 244/264/242 
f 246/266/244 258/279/256 257/278/255 245/265/243 
f 247/267/245 259/280/257 258/279/256 246/266/244 
f 248/268/246 260/281/258 259/280/257 247/267/245 
f 249/269/247 261/282/259 260/281/258 248/268/246 
f 250/270/248 262/283/260 261/282/259 249/269/247 
f 251/271/249 263/284/261 262/283/260 250/270/248 
f 252/272/250 264/285/262 263/284/261 251/271/249 
f 242/273/240 254/286/252 264/285/262 252/272/250 
f 253/274/251 265/287/263 266/288/264 254/275/252 
f 255/276/253 267/289/265 265/287/263 253/274/251 
f 256/277/254 268/290/266 267/289/265 255/276/253 
f 257/278/255 269/291/267 268/290/266 256/277/254 
f 258/279/256 270/292/268 269/291/267 257/278/255 
f 259/280/257 271/293/269 270/292/268 258/279/256 
f 260/281/258 272/294/270 271/293/269 259/280/257 
f 261/282/259 273/295/271 272/294/270 260/281/258 
f 262/283/260 274/296/272 273/295/271 261/282/259 
f 263/284/261 275/297/273 274/296/272 262/283/260 
f 264/285/262 276/298/274 275/297/273 263/284/261 
f 254/286/252 266/299/264 276/298/274 264/285/262 
f 265/287/263 277/300/275 278/301/139 266/288/264 
f 267/289/265 279/302/276 277/300/275 265/287/263 
f 268/290/266 280/303/277 279/302/276 267/289/265 
f 269/291/267 281/304/278 280/303/277 268/290/266 
f 270/292/268 282/305/279 281/304/278 269/291/267 
f 271/293/269 283/306/280 282/305/279 270/292/268 
f 272/294/270 284/307/281 283/306/280 271/293/269 
f 273/295/271 285/308/282 284/307/281 272/294/270 
f 274/296/272 286/309/283 285/308/282 273/295/271 
f 275/297/273 287/310/284 286/309/283 274/296/272 
f 276/298/274 288/311/285 287/310/284 275/297/273 
f 266/299/264 278/312/139 288/311/285 276/298/274 
f 277/300/275 1/313/1 4/314/4 278/301/139 
f 279/302/276 5/315/5 1/313/1 277/300/275 
f 280/303/277 7/316/7 5/315/5 279/302/276 
f 281/304/278 9/317/9 7/316/7 280/303/277 
f 282/305/279 11/318/11 9/317/9 281/304/278 
f 283/306/280 13/319/13 11/318/11 282/305/279 
f 284/307/281 15/320/15 13/319/13 283/306/280 
f 285/308/282 17/321/17 15/320/15 284/307/281 
f 286/309/283 19/322/19 17/321/17 285/308/282 
f 287/310/284 21/323/21 19/322/19 286/309/283 
f 288/311/285 23/324/23 21/323/21 287/310/284 
f 278/312/139 4/325/4 23/324/23 288/311/285 
# 288 polygons

