# 3ds Max Wavefront OBJ Exporter v0.99 - (c)2007 guruware
# File Created: 24.10.2024 23:00:34

mtllib agua.mtl

#
# object Agua
#

v  -3.3834 2.4491 2.5699
v  -3.3834 2.4491 2.7452
v  -3.2966 2.4491 2.7456
v  -3.2970 2.4491 2.5709
v  -3.3834 2.4491 2.9204
v  -3.2964 2.4491 2.9205
v  -3.2097 2.4491 2.7459
v  -3.2105 2.4491 2.5717
v  -3.2093 2.4491 2.9206
v  -3.3834 2.4491 3.0957
v  -3.3834 2.4491 3.2709
v  -3.2963 2.4491 3.2709
v  -3.2963 2.4491 3.0957
v  -3.2092 2.4491 3.2709
v  -3.2092 2.4491 3.0957
v  -3.0350 2.4491 3.2709
v  -3.0350 2.4491 3.0957
v  -3.1221 2.4491 3.0957
v  -3.1221 2.4491 3.2709
v  -3.0352 2.4491 2.9207
v  -3.1223 2.4491 2.9207
v  -3.0358 2.4491 2.7462
v  -3.0369 2.4491 2.5726
v  -3.1238 2.4491 2.5723
v  -3.1228 2.4491 2.7461
v  -2.9486 2.4491 2.7461
v  -2.9497 2.4491 2.5723
v  -2.9481 2.4491 2.9207
v  -2.8614 2.4491 2.7459
v  -2.8622 2.4491 2.5718
v  -2.8610 2.4491 2.9206
v  -2.9479 2.4491 3.2709
v  -2.9479 2.4491 3.0957
v  -2.8609 2.4491 3.2709
v  -2.8609 2.4491 3.0957
v  -2.6867 2.4491 3.2709
v  -2.6867 2.4491 3.0957
v  -2.7738 2.4491 3.0957
v  -2.7738 2.4491 3.2709
v  -2.6867 2.4491 2.9205
v  -2.7739 2.4491 2.9205
v  -2.6869 2.4491 2.7454
v  -2.6871 2.4491 2.5705
v  -2.7746 2.4491 2.5711
v  -2.7741 2.4491 2.7457
v  -2.5997 2.4491 2.7453
v  -2.5998 2.4491 2.5702
v  -2.5996 2.4491 2.9204
v  -2.5125 2.4491 2.7452
v  -2.5126 2.4491 2.5700
v  -2.5125 2.4491 2.9204
v  -2.5996 2.4491 3.2709
v  -2.5996 2.4491 3.0957
v  -2.5125 2.4491 3.2709
v  -2.5125 2.4491 3.0957
v  -2.3383 2.4491 3.2709
v  -2.3383 2.4491 3.0957
v  -2.4254 2.4491 3.0957
v  -2.4254 2.4491 3.2709
v  -2.3383 2.4491 2.9204
v  -2.4254 2.4491 2.9204
v  -2.3383 2.4491 2.7452
v  -2.3383 2.4491 2.5699
v  -2.4254 2.4491 2.5699
v  -2.4254 2.4491 2.7452
v  -2.2513 2.4491 2.7452
v  -2.2513 2.4491 2.5699
v  -2.2513 2.4491 2.9204
v  -2.1642 2.4491 2.7452
v  -2.1642 2.4491 2.5699
v  -2.1642 2.4491 2.9204
v  -2.2513 2.4491 3.2709
v  -2.2513 2.4491 3.0957
v  -2.1642 2.4491 3.2709
v  -2.1642 2.4491 3.0957
v  -1.9900 2.4491 3.2709
v  -1.9900 2.4491 3.0957
v  -2.0771 2.4491 3.0957
v  -2.0771 2.4491 3.2709
v  -1.9900 2.4491 2.9204
v  -2.0771 2.4491 2.9204
v  -1.9900 2.4491 2.7452
v  -1.9900 2.4491 2.5699
v  -2.0771 2.4491 2.5699
v  -2.0771 2.4491 2.7452
v  -3.3834 2.4491 1.8689
v  -3.3834 2.4491 2.0442
v  -3.2990 2.4491 2.0480
v  -3.2993 2.4491 1.8731
v  -3.3834 2.4491 2.2194
v  -3.2984 2.4491 2.2224
v  -3.2144 2.4491 2.0513
v  -3.2149 2.4491 1.8768
v  -3.2132 2.4491 2.2250
v  -3.3834 2.4491 2.3947
v  -3.2977 2.4491 2.3966
v  -3.2118 2.4491 2.3983
v  -3.0388 2.4491 2.3999
v  -3.1255 2.4491 2.3995
v  -3.0409 2.4491 2.2276
v  -3.1274 2.4491 2.2268
v  -3.0426 2.4491 2.0547
v  -3.0433 2.4491 1.8805
v  -3.1297 2.4491 1.8794
v  -3.1290 2.4491 2.0537
v  -2.9548 2.4491 2.0537
v  -2.9555 2.4491 1.8794
v  -2.9533 2.4491 2.2268
v  -2.8662 2.4491 2.0516
v  -2.8667 2.4491 1.8771
v  -2.8650 2.4491 2.2252
v  -2.9514 2.4491 2.3995
v  -2.8635 2.4491 2.3984
v  -2.6875 2.4491 2.3959
v  -2.7755 2.4491 2.3971
v  -2.6880 2.4491 2.2213
v  -2.7764 2.4491 2.2231
v  -2.6884 2.4491 2.0466
v  -2.6886 2.4491 1.8716
v  -2.7775 2.4491 1.8742
v  -2.7772 2.4491 2.0490
v  -2.6003 2.4491 2.0451
v  -2.6004 2.4491 1.8700
v  -2.6001 2.4491 2.2202
v  -2.5127 2.4491 2.0444
v  -2.5127 2.4491 1.8692
v  -2.5126 2.4491 2.2196
v  -2.5999 2.4491 2.3952
v  -2.5126 2.4491 2.3948
v  -2.3383 2.4491 2.3947
v  -2.4254 2.4491 2.3947
v  -2.3383 2.4491 2.2194
v  -2.4254 2.4491 2.2194
v  -2.3383 2.4491 2.0442
v  -2.3383 2.4491 1.8689
v  -2.4254 2.4491 1.8689
v  -2.4254 2.4491 2.0442
v  -2.2513 2.4491 2.0442
v  -2.2513 2.4491 1.8689
v  -2.2513 2.4491 2.2194
v  -2.1642 2.4491 2.0442
v  -2.1642 2.4491 1.8689
v  -2.1642 2.4491 2.2194
v  -2.2513 2.4491 2.3947
v  -2.1642 2.4491 2.3947
v  -1.9900 2.4491 2.3947
v  -2.0771 2.4491 2.3947
v  -1.9900 2.4491 2.2194
v  -2.0771 2.4491 2.2194
v  -1.9900 2.4491 2.0442
v  -1.9900 2.4491 1.8689
v  -2.0771 2.4491 1.8689
v  -2.0771 2.4491 2.0442
v  -3.3834 2.4491 1.1680
v  -3.3834 2.4491 1.3432
v  -3.2977 2.4491 1.3451
v  -3.2970 2.4491 1.1689
v  -3.3834 2.4491 1.5185
v  -3.2984 2.4491 1.5214
v  -3.2118 2.4491 1.3468
v  -3.2105 2.4491 1.1698
v  -3.2132 2.4491 1.5240
v  -3.3834 2.4491 1.6937
v  -3.2990 2.4491 1.6975
v  -3.2144 2.4491 1.7009
v  -3.0426 2.4491 1.7042
v  -3.1290 2.4491 1.7032
v  -3.0409 2.4491 1.5266
v  -3.1274 2.4491 1.5258
v  -3.0388 2.4491 1.3485
v  -3.0369 2.4491 1.1706
v  -3.1238 2.4491 1.1703
v  -3.1255 2.4491 1.3480
v  -2.9514 2.4491 1.3480
v  -2.9497 2.4491 1.1703
v  -2.9533 2.4491 1.5258
v  -2.8635 2.4491 1.3469
v  -2.8622 2.4491 1.1698
v  -2.8650 2.4491 1.5242
v  -2.9548 2.4491 1.7032
v  -2.8662 2.4491 1.7011
v  -2.6884 2.4491 1.6961
v  -2.7772 2.4491 1.6985
v  -2.6880 2.4491 1.5203
v  -2.7764 2.4491 1.5222
v  -2.6875 2.4491 1.3444
v  -2.6871 2.4491 1.1686
v  -2.7746 2.4491 1.1692
v  -2.7755 2.4491 1.3456
v  -2.5999 2.4491 1.3437
v  -2.5998 2.4491 1.1682
v  -2.6001 2.4491 1.5192
v  -2.5126 2.4491 1.3433
v  -2.5126 2.4491 1.1680
v  -2.5126 2.4491 1.5186
v  -2.6003 2.4491 1.6947
v  -2.5127 2.4491 1.6939
v  -2.3383 2.4491 1.6937
v  -2.4254 2.4491 1.6937
v  -2.3383 2.4491 1.5185
v  -2.4254 2.4491 1.5185
v  -2.3383 2.4491 1.3432
v  -2.3383 2.4491 1.1680
v  -2.4254 2.4491 1.1680
v  -2.4254 2.4491 1.3432
v  -2.2513 2.4491 1.3432
v  -2.2513 2.4491 1.1680
v  -2.2513 2.4491 1.5185
v  -2.1642 2.4491 1.3432
v  -2.1642 2.4491 1.1680
v  -2.1642 2.4491 1.5185
v  -2.2513 2.4491 1.6937
v  -2.1642 2.4491 1.6937
v  -1.9900 2.4491 1.6937
v  -2.0771 2.4491 1.6937
v  -1.9900 2.4491 1.5185
v  -2.0771 2.4491 1.5185
v  -1.9900 2.4491 1.3432
v  -1.9900 2.4491 1.1680
v  -2.0771 2.4491 1.1680
v  -2.0771 2.4491 1.3432
v  -3.3834 2.4491 0.4670
v  -3.3834 2.4491 0.6422
v  -3.2963 2.4491 0.6422
v  -3.2963 2.4491 0.4670
v  -3.3834 2.4491 0.8175
v  -3.2964 2.4491 0.8176
v  -3.2092 2.4491 0.6422
v  -3.2092 2.4491 0.4670
v  -3.2093 2.4491 0.8177
v  -3.3834 2.4491 0.9927
v  -3.2966 2.4491 0.9931
v  -3.2097 2.4491 0.9934
v  -3.0358 2.4491 0.9938
v  -3.1228 2.4491 0.9937
v  -3.0352 2.4491 0.8177
v  -3.1223 2.4491 0.8177
v  -3.0350 2.4491 0.6422
v  -3.0350 2.4491 0.4670
v  -3.1221 2.4491 0.4670
v  -3.1221 2.4491 0.6422
v  -2.9479 2.4491 0.6422
v  -2.9479 2.4491 0.4670
v  -2.9481 2.4491 0.8177
v  -2.8609 2.4491 0.6422
v  -2.8609 2.4491 0.4670
v  -2.8610 2.4491 0.8177
v  -2.9486 2.4491 0.9937
v  -2.8614 2.4491 0.9935
v  -2.6869 2.4491 0.9930
v  -2.7741 2.4491 0.9932
v  -2.6867 2.4491 0.8175
v  -2.7739 2.4491 0.8176
v  -2.6867 2.4491 0.6422
v  -2.6867 2.4491 0.4670
v  -2.7738 2.4491 0.4670
v  -2.7738 2.4491 0.6422
v  -2.5996 2.4491 0.6422
v  -2.5996 2.4491 0.4670
v  -2.5996 2.4491 0.8175
v  -2.5125 2.4491 0.6422
v  -2.5125 2.4491 0.4670
v  -2.5125 2.4491 0.8175
v  -2.5997 2.4491 0.9928
v  -2.5125 2.4491 0.9927
v  -2.3383 2.4491 0.9927
v  -2.4254 2.4491 0.9927
v  -2.3383 2.4491 0.8175
v  -2.4254 2.4491 0.8175
v  -2.3383 2.4491 0.6422
v  -2.3383 2.4491 0.4670
v  -2.4254 2.4491 0.4670
v  -2.4254 2.4491 0.6422
v  -2.2513 2.4491 0.6422
v  -2.2513 2.4491 0.4670
v  -2.2513 2.4491 0.8175
v  -2.1642 2.4491 0.6422
v  -2.1642 2.4491 0.4670
v  -2.1642 2.4491 0.8175
v  -2.2513 2.4491 0.9927
v  -2.1642 2.4491 0.9927
v  -1.9900 2.4491 0.9927
v  -2.0771 2.4491 0.9927
v  -1.9900 2.4491 0.8175
v  -2.0771 2.4491 0.8175
v  -1.9900 2.4491 0.6422
v  -1.9900 2.4491 0.4670
v  -2.0771 2.4491 0.4670
v  -2.0771 2.4491 0.6422
# 289 vertices

vn 0.0000 1.0000 -0.0000
# 1 vertex normals

vt 0.0000 0.2500 0.0000
vt 0.0000 0.1875 0.0000
vt 0.0625 0.1875 0.0000
vt 0.0625 0.2500 0.0000
vt 0.0000 0.1250 0.0000
vt 0.0625 0.1250 0.0000
vt 0.1250 0.1875 0.0000
vt 0.1250 0.2500 0.0000
vt 0.1250 0.1250 0.0000
vt 0.0000 0.0625 0.0000
vt 0.0000 0.0000 0.0000
vt 0.0625 0.0000 0.0000
vt 0.0625 0.0625 0.0000
vt 0.1250 0.0000 0.0000
vt 0.1250 0.0625 0.0000
vt 0.2500 0.0000 0.0000
vt 0.2500 0.0625 0.0000
vt 0.1875 0.0625 0.0000
vt 0.1875 0.0000 0.0000
vt 0.2500 0.1250 0.0000
vt 0.1875 0.1250 0.0000
vt 0.2500 0.1875 0.0000
vt 0.2500 0.2500 0.0000
vt 0.1875 0.2500 0.0000
vt 0.1875 0.1875 0.0000
vt 0.3125 0.1875 0.0000
vt 0.3125 0.2500 0.0000
vt 0.3125 0.1250 0.0000
vt 0.3750 0.1875 0.0000
vt 0.3750 0.2500 0.0000
vt 0.3750 0.1250 0.0000
vt 0.3125 0.0000 0.0000
vt 0.3125 0.0625 0.0000
vt 0.3750 0.0000 0.0000
vt 0.3750 0.0625 0.0000
vt 0.5000 0.0000 0.0000
vt 0.5000 0.0625 0.0000
vt 0.4375 0.0625 0.0000
vt 0.4375 0.0000 0.0000
vt 0.5000 0.1250 0.0000
vt 0.4375 0.1250 0.0000
vt 0.5000 0.1875 0.0000
vt 0.5000 0.2500 0.0000
vt 0.4375 0.2500 0.0000
vt 0.4375 0.1875 0.0000
vt 0.5625 0.1875 0.0000
vt 0.5625 0.2500 0.0000
vt 0.5625 0.1250 0.0000
vt 0.6250 0.1875 0.0000
vt 0.6250 0.2500 0.0000
vt 0.6250 0.1250 0.0000
vt 0.5625 0.0000 0.0000
vt 0.5625 0.0625 0.0000
vt 0.6250 0.0000 0.0000
vt 0.6250 0.0625 0.0000
vt 0.7500 0.0000 0.0000
vt 0.7500 0.0625 0.0000
vt 0.6875 0.0625 0.0000
vt 0.6875 0.0000 0.0000
vt 0.7500 0.1250 0.0000
vt 0.6875 0.1250 0.0000
vt 0.7500 0.1875 0.0000
vt 0.7500 0.2500 0.0000
vt 0.6875 0.2500 0.0000
vt 0.6875 0.1875 0.0000
vt 0.8125 0.1875 0.0000
vt 0.8125 0.2500 0.0000
vt 0.8125 0.1250 0.0000
vt 0.8750 0.1875 0.0000
vt 0.8750 0.2500 0.0000
vt 0.8750 0.1250 0.0000
vt 0.8125 0.0000 0.0000
vt 0.8125 0.0625 0.0000
vt 0.8750 0.0000 0.0000
vt 0.8750 0.0625 0.0000
vt 1.0000 0.0000 0.0000
vt 1.0000 0.0625 0.0000
vt 0.9375 0.0625 0.0000
vt 0.9375 0.0000 0.0000
vt 1.0000 0.1250 0.0000
vt 0.9375 0.1250 0.0000
vt 1.0000 0.1875 0.0000
vt 1.0000 0.2500 0.0000
vt 0.9375 0.2500 0.0000
vt 0.9375 0.1875 0.0000
vt 0.0000 0.5000 0.0000
vt 0.0000 0.4375 0.0000
vt 0.0625 0.4375 0.0000
vt 0.0625 0.5000 0.0000
vt 0.0000 0.3750 0.0000
vt 0.0625 0.3750 0.0000
vt 0.1250 0.4375 0.0000
vt 0.1250 0.5000 0.0000
vt 0.1250 0.3750 0.0000
vt 0.0000 0.3125 0.0000
vt 0.0625 0.3125 0.0000
vt 0.1250 0.3125 0.0000
vt 0.2500 0.3125 0.0000
vt 0.1875 0.3125 0.0000
vt 0.2500 0.3750 0.0000
vt 0.1875 0.3750 0.0000
vt 0.2500 0.4375 0.0000
vt 0.2500 0.5000 0.0000
vt 0.1875 0.5000 0.0000
vt 0.1875 0.4375 0.0000
vt 0.3125 0.4375 0.0000
vt 0.3125 0.5000 0.0000
vt 0.3125 0.3750 0.0000
vt 0.3750 0.4375 0.0000
vt 0.3750 0.5000 0.0000
vt 0.3750 0.3750 0.0000
vt 0.3125 0.3125 0.0000
vt 0.3750 0.3125 0.0000
vt 0.5000 0.3125 0.0000
vt 0.4375 0.3125 0.0000
vt 0.5000 0.3750 0.0000
vt 0.4375 0.3750 0.0000
vt 0.5000 0.4375 0.0000
vt 0.5000 0.5000 0.0000
vt 0.4375 0.5000 0.0000
vt 0.4375 0.4375 0.0000
vt 0.5625 0.4375 0.0000
vt 0.5625 0.5000 0.0000
vt 0.5625 0.3750 0.0000
vt 0.6250 0.4375 0.0000
vt 0.6250 0.5000 0.0000
vt 0.6250 0.3750 0.0000
vt 0.5625 0.3125 0.0000
vt 0.6250 0.3125 0.0000
vt 0.7500 0.3125 0.0000
vt 0.6875 0.3125 0.0000
vt 0.7500 0.3750 0.0000
vt 0.6875 0.3750 0.0000
vt 0.7500 0.4375 0.0000
vt 0.7500 0.5000 0.0000
vt 0.6875 0.5000 0.0000
vt 0.6875 0.4375 0.0000
vt 0.8125 0.4375 0.0000
vt 0.8125 0.5000 0.0000
vt 0.8125 0.3750 0.0000
vt 0.8750 0.4375 0.0000
vt 0.8750 0.5000 0.0000
vt 0.8750 0.3750 0.0000
vt 0.8125 0.3125 0.0000
vt 0.8750 0.3125 0.0000
vt 1.0000 0.3125 0.0000
vt 0.9375 0.3125 0.0000
vt 1.0000 0.3750 0.0000
vt 0.9375 0.3750 0.0000
vt 1.0000 0.4375 0.0000
vt 1.0000 0.5000 0.0000
vt 0.9375 0.5000 0.0000
vt 0.9375 0.4375 0.0000
vt 0.0000 0.7500 0.0000
vt 0.0000 0.6875 0.0000
vt 0.0625 0.6875 0.0000
vt 0.0625 0.7500 0.0000
vt 0.0000 0.6250 0.0000
vt 0.0625 0.6250 0.0000
vt 0.1250 0.6875 0.0000
vt 0.1250 0.7500 0.0000
vt 0.1250 0.6250 0.0000
vt 0.0000 0.5625 0.0000
vt 0.0625 0.5625 0.0000
vt 0.1250 0.5625 0.0000
vt 0.2500 0.5625 0.0000
vt 0.1875 0.5625 0.0000
vt 0.2500 0.6250 0.0000
vt 0.1875 0.6250 0.0000
vt 0.2500 0.6875 0.0000
vt 0.2500 0.7500 0.0000
vt 0.1875 0.7500 0.0000
vt 0.1875 0.6875 0.0000
vt 0.3125 0.6875 0.0000
vt 0.3125 0.7500 0.0000
vt 0.3125 0.6250 0.0000
vt 0.3750 0.6875 0.0000
vt 0.3750 0.7500 0.0000
vt 0.3750 0.6250 0.0000
vt 0.3125 0.5625 0.0000
vt 0.3750 0.5625 0.0000
vt 0.5000 0.5625 0.0000
vt 0.4375 0.5625 0.0000
vt 0.5000 0.6250 0.0000
vt 0.4375 0.6250 0.0000
vt 0.5000 0.6875 0.0000
vt 0.5000 0.7500 0.0000
vt 0.4375 0.7500 0.0000
vt 0.4375 0.6875 0.0000
vt 0.5625 0.6875 0.0000
vt 0.5625 0.7500 0.0000
vt 0.5625 0.6250 0.0000
vt 0.6250 0.6875 0.0000
vt 0.6250 0.7500 0.0000
vt 0.6250 0.6250 0.0000
vt 0.5625 0.5625 0.0000
vt 0.6250 0.5625 0.0000
vt 0.7500 0.5625 0.0000
vt 0.6875 0.5625 0.0000
vt 0.7500 0.6250 0.0000
vt 0.6875 0.6250 0.0000
vt 0.7500 0.6875 0.0000
vt 0.7500 0.7500 0.0000
vt 0.6875 0.7500 0.0000
vt 0.6875 0.6875 0.0000
vt 0.8125 0.6875 0.0000
vt 0.8125 0.7500 0.0000
vt 0.8125 0.6250 0.0000
vt 0.8750 0.6875 0.0000
vt 0.8750 0.7500 0.0000
vt 0.8750 0.6250 0.0000
vt 0.8125 0.5625 0.0000
vt 0.8750 0.5625 0.0000
vt 1.0000 0.5625 0.0000
vt 0.9375 0.5625 0.0000
vt 1.0000 0.6250 0.0000
vt 0.9375 0.6250 0.0000
vt 1.0000 0.6875 0.0000
vt 1.0000 0.7500 0.0000
vt 0.9375 0.7500 0.0000
vt 0.9375 0.6875 0.0000
vt 0.0000 1.0000 0.0000
vt 0.0000 0.9375 0.0000
vt 0.0625 0.9375 0.0000
vt 0.0625 1.0000 0.0000
vt 0.0000 0.8750 0.0000
vt 0.0625 0.8750 0.0000
vt 0.1250 0.9375 0.0000
vt 0.1250 1.0000 0.0000
vt 0.1250 0.8750 0.0000
vt 0.0000 0.8125 0.0000
vt 0.0625 0.8125 0.0000
vt 0.1250 0.8125 0.0000
vt 0.2500 0.8125 0.0000
vt 0.1875 0.8125 0.0000
vt 0.2500 0.8750 0.0000
vt 0.1875 0.8750 0.0000
vt 0.2500 0.9375 0.0000
vt 0.2500 1.0000 0.0000
vt 0.1875 1.0000 0.0000
vt 0.1875 0.9375 0.0000
vt 0.3125 0.9375 0.0000
vt 0.3125 1.0000 0.0000
vt 0.3125 0.8750 0.0000
vt 0.3750 0.9375 0.0000
vt 0.3750 1.0000 0.0000
vt 0.3750 0.8750 0.0000
vt 0.3125 0.8125 0.0000
vt 0.3750 0.8125 0.0000
vt 0.5000 0.8125 0.0000
vt 0.4375 0.8125 0.0000
vt 0.5000 0.8750 0.0000
vt 0.4375 0.8750 0.0000
vt 0.5000 0.9375 0.0000
vt 0.5000 1.0000 0.0000
vt 0.4375 1.0000 0.0000
vt 0.4375 0.9375 0.0000
vt 0.5625 0.9375 0.0000
vt 0.5625 1.0000 0.0000
vt 0.5625 0.8750 0.0000
vt 0.6250 0.9375 0.0000
vt 0.6250 1.0000 0.0000
vt 0.6250 0.8750 0.0000
vt 0.5625 0.8125 0.0000
vt 0.6250 0.8125 0.0000
vt 0.7500 0.8125 0.0000
vt 0.6875 0.8125 0.0000
vt 0.7500 0.8750 0.0000
vt 0.6875 0.8750 0.0000
vt 0.7500 0.9375 0.0000
vt 0.7500 1.0000 0.0000
vt 0.6875 1.0000 0.0000
vt 0.6875 0.9375 0.0000
vt 0.8125 0.9375 0.0000
vt 0.8125 1.0000 0.0000
vt 0.8125 0.8750 0.0000
vt 0.8750 0.9375 0.0000
vt 0.8750 1.0000 0.0000
vt 0.8750 0.8750 0.0000
vt 0.8125 0.8125 0.0000
vt 0.8750 0.8125 0.0000
vt 1.0000 0.8125 0.0000
vt 0.9375 0.8125 0.0000
vt 1.0000 0.8750 0.0000
vt 0.9375 0.8750 0.0000
vt 1.0000 0.9375 0.0000
vt 1.0000 1.0000 0.0000
vt 0.9375 1.0000 0.0000
vt 0.9375 0.9375 0.0000
# 289 texture coords

o Agua
g Agua
usemtl Material__2
s 2
f 1/1/1 2/2/1 3/3/1 4/4/1 
f 2/2/1 5/5/1 6/6/1 3/3/1 
f 4/4/1 3/3/1 7/7/1 8/8/1 
f 3/3/1 6/6/1 9/9/1 7/7/1 
f 10/10/1 11/11/1 12/12/1 13/13/1 
f 13/13/1 12/12/1 14/14/1 15/15/1 
f 5/5/1 10/10/1 13/13/1 6/6/1 
f 6/6/1 13/13/1 15/15/1 9/9/1 
f 16/16/1 17/17/1 18/18/1 19/19/1 
f 17/17/1 20/20/1 21/21/1 18/18/1 
f 19/19/1 18/18/1 15/15/1 14/14/1 
f 18/18/1 21/21/1 9/9/1 15/15/1 
f 22/22/1 23/23/1 24/24/1 25/25/1 
f 25/25/1 24/24/1 8/8/1 7/7/1 
f 20/20/1 22/22/1 25/25/1 21/21/1 
f 21/21/1 25/25/1 7/7/1 9/9/1 
f 23/23/1 22/22/1 26/26/1 27/27/1 
f 22/22/1 20/20/1 28/28/1 26/26/1 
f 27/27/1 26/26/1 29/29/1 30/30/1 
f 26/26/1 28/28/1 31/31/1 29/29/1 
f 17/17/1 16/16/1 32/32/1 33/33/1 
f 33/33/1 32/32/1 34/34/1 35/35/1 
f 20/20/1 17/17/1 33/33/1 28/28/1 
f 28/28/1 33/33/1 35/35/1 31/31/1 
f 36/36/1 37/37/1 38/38/1 39/39/1 
f 37/37/1 40/40/1 41/41/1 38/38/1 
f 39/39/1 38/38/1 35/35/1 34/34/1 
f 38/38/1 41/41/1 31/31/1 35/35/1 
f 42/42/1 43/43/1 44/44/1 45/45/1 
f 45/45/1 44/44/1 30/30/1 29/29/1 
f 40/40/1 42/42/1 45/45/1 41/41/1 
f 41/41/1 45/45/1 29/29/1 31/31/1 
f 43/43/1 42/42/1 46/46/1 47/47/1 
f 42/42/1 40/40/1 48/48/1 46/46/1 
f 47/47/1 46/46/1 49/49/1 50/50/1 
f 46/46/1 48/48/1 51/51/1 49/49/1 
f 37/37/1 36/36/1 52/52/1 53/53/1 
f 53/53/1 52/52/1 54/54/1 55/55/1 
f 40/40/1 37/37/1 53/53/1 48/48/1 
f 48/48/1 53/53/1 55/55/1 51/51/1 
f 56/56/1 57/57/1 58/58/1 59/59/1 
f 57/57/1 60/60/1 61/61/1 58/58/1 
f 59/59/1 58/58/1 55/55/1 54/54/1 
f 58/58/1 61/61/1 51/51/1 55/55/1 
f 62/62/1 63/63/1 64/64/1 65/65/1 
f 65/65/1 64/64/1 50/50/1 49/49/1 
f 60/60/1 62/62/1 65/65/1 61/61/1 
f 61/61/1 65/65/1 49/49/1 51/51/1 
f 63/63/1 62/62/1 66/66/1 67/67/1 
f 62/62/1 60/60/1 68/68/1 66/66/1 
f 67/67/1 66/66/1 69/69/1 70/70/1 
f 66/66/1 68/68/1 71/71/1 69/69/1 
f 57/57/1 56/56/1 72/72/1 73/73/1 
f 73/73/1 72/72/1 74/74/1 75/75/1 
f 60/60/1 57/57/1 73/73/1 68/68/1 
f 68/68/1 73/73/1 75/75/1 71/71/1 
f 76/76/1 77/77/1 78/78/1 79/79/1 
f 77/77/1 80/80/1 81/81/1 78/78/1 
f 79/79/1 78/78/1 75/75/1 74/74/1 
f 78/78/1 81/81/1 71/71/1 75/75/1 
f 82/82/1 83/83/1 84/84/1 85/85/1 
f 85/85/1 84/84/1 70/70/1 69/69/1 
f 80/80/1 82/82/1 85/85/1 81/81/1 
f 81/81/1 85/85/1 69/69/1 71/71/1 
f 86/86/1 87/87/1 88/88/1 89/89/1 
f 87/87/1 90/90/1 91/91/1 88/88/1 
f 89/89/1 88/88/1 92/92/1 93/93/1 
f 88/88/1 91/91/1 94/94/1 92/92/1 
f 95/95/1 1/1/1 4/4/1 96/96/1 
f 96/96/1 4/4/1 8/8/1 97/97/1 
f 90/90/1 95/95/1 96/96/1 91/91/1 
f 91/91/1 96/96/1 97/97/1 94/94/1 
f 23/23/1 98/98/1 99/99/1 24/24/1 
f 98/98/1 100/100/1 101/101/1 99/99/1 
f 24/24/1 99/99/1 97/97/1 8/8/1 
f 99/99/1 101/101/1 94/94/1 97/97/1 
f 102/102/1 103/103/1 104/104/1 105/105/1 
f 105/105/1 104/104/1 93/93/1 92/92/1 
f 100/100/1 102/102/1 105/105/1 101/101/1 
f 101/101/1 105/105/1 92/92/1 94/94/1 
f 103/103/1 102/102/1 106/106/1 107/107/1 
f 102/102/1 100/100/1 108/108/1 106/106/1 
f 107/107/1 106/106/1 109/109/1 110/110/1 
f 106/106/1 108/108/1 111/111/1 109/109/1 
f 98/98/1 23/23/1 27/27/1 112/112/1 
f 112/112/1 27/27/1 30/30/1 113/113/1 
f 100/100/1 98/98/1 112/112/1 108/108/1 
f 108/108/1 112/112/1 113/113/1 111/111/1 
f 43/43/1 114/114/1 115/115/1 44/44/1 
f 114/114/1 116/116/1 117/117/1 115/115/1 
f 44/44/1 115/115/1 113/113/1 30/30/1 
f 115/115/1 117/117/1 111/111/1 113/113/1 
f 118/118/1 119/119/1 120/120/1 121/121/1 
f 121/121/1 120/120/1 110/110/1 109/109/1 
f 116/116/1 118/118/1 121/121/1 117/117/1 
f 117/117/1 121/121/1 109/109/1 111/111/1 
f 119/119/1 118/118/1 122/122/1 123/123/1 
f 118/118/1 116/116/1 124/124/1 122/122/1 
f 123/123/1 122/122/1 125/125/1 126/126/1 
f 122/122/1 124/124/1 127/127/1 125/125/1 
f 114/114/1 43/43/1 47/47/1 128/128/1 
f 128/128/1 47/47/1 50/50/1 129/129/1 
f 116/116/1 114/114/1 128/128/1 124/124/1 
f 124/124/1 128/128/1 129/129/1 127/127/1 
f 63/63/1 130/130/1 131/131/1 64/64/1 
f 130/130/1 132/132/1 133/133/1 131/131/1 
f 64/64/1 131/131/1 129/129/1 50/50/1 
f 131/131/1 133/133/1 127/127/1 129/129/1 
f 134/134/1 135/135/1 136/136/1 137/137/1 
f 137/137/1 136/136/1 126/126/1 125/125/1 
f 132/132/1 134/134/1 137/137/1 133/133/1 
f 133/133/1 137/137/1 125/125/1 127/127/1 
f 135/135/1 134/134/1 138/138/1 139/139/1 
f 134/134/1 132/132/1 140/140/1 138/138/1 
f 139/139/1 138/138/1 141/141/1 142/142/1 
f 138/138/1 140/140/1 143/143/1 141/141/1 
f 130/130/1 63/63/1 67/67/1 144/144/1 
f 144/144/1 67/67/1 70/70/1 145/145/1 
f 132/132/1 130/130/1 144/144/1 140/140/1 
f 140/140/1 144/144/1 145/145/1 143/143/1 
f 83/83/1 146/146/1 147/147/1 84/84/1 
f 146/146/1 148/148/1 149/149/1 147/147/1 
f 84/84/1 147/147/1 145/145/1 70/70/1 
f 147/147/1 149/149/1 143/143/1 145/145/1 
f 150/150/1 151/151/1 152/152/1 153/153/1 
f 153/153/1 152/152/1 142/142/1 141/141/1 
f 148/148/1 150/150/1 153/153/1 149/149/1 
f 149/149/1 153/153/1 141/141/1 143/143/1 
f 154/154/1 155/155/1 156/156/1 157/157/1 
f 155/155/1 158/158/1 159/159/1 156/156/1 
f 157/157/1 156/156/1 160/160/1 161/161/1 
f 156/156/1 159/159/1 162/162/1 160/160/1 
f 163/163/1 86/86/1 89/89/1 164/164/1 
f 164/164/1 89/89/1 93/93/1 165/165/1 
f 158/158/1 163/163/1 164/164/1 159/159/1 
f 159/159/1 164/164/1 165/165/1 162/162/1 
f 103/103/1 166/166/1 167/167/1 104/104/1 
f 166/166/1 168/168/1 169/169/1 167/167/1 
f 104/104/1 167/167/1 165/165/1 93/93/1 
f 167/167/1 169/169/1 162/162/1 165/165/1 
f 170/170/1 171/171/1 172/172/1 173/173/1 
f 173/173/1 172/172/1 161/161/1 160/160/1 
f 168/168/1 170/170/1 173/173/1 169/169/1 
f 169/169/1 173/173/1 160/160/1 162/162/1 
f 171/171/1 170/170/1 174/174/1 175/175/1 
f 170/170/1 168/168/1 176/176/1 174/174/1 
f 175/175/1 174/174/1 177/177/1 178/178/1 
f 174/174/1 176/176/1 179/179/1 177/177/1 
f 166/166/1 103/103/1 107/107/1 180/180/1 
f 180/180/1 107/107/1 110/110/1 181/181/1 
f 168/168/1 166/166/1 180/180/1 176/176/1 
f 176/176/1 180/180/1 181/181/1 179/179/1 
f 119/119/1 182/182/1 183/183/1 120/120/1 
f 182/182/1 184/184/1 185/185/1 183/183/1 
f 120/120/1 183/183/1 181/181/1 110/110/1 
f 183/183/1 185/185/1 179/179/1 181/181/1 
f 186/186/1 187/187/1 188/188/1 189/189/1 
f 189/189/1 188/188/1 178/178/1 177/177/1 
f 184/184/1 186/186/1 189/189/1 185/185/1 
f 185/185/1 189/189/1 177/177/1 179/179/1 
f 187/187/1 186/186/1 190/190/1 191/191/1 
f 186/186/1 184/184/1 192/192/1 190/190/1 
f 191/191/1 190/190/1 193/193/1 194/194/1 
f 190/190/1 192/192/1 195/195/1 193/193/1 
f 182/182/1 119/119/1 123/123/1 196/196/1 
f 196/196/1 123/123/1 126/126/1 197/197/1 
f 184/184/1 182/182/1 196/196/1 192/192/1 
f 192/192/1 196/196/1 197/197/1 195/195/1 
f 135/135/1 198/198/1 199/199/1 136/136/1 
f 198/198/1 200/200/1 201/201/1 199/199/1 
f 136/136/1 199/199/1 197/197/1 126/126/1 
f 199/199/1 201/201/1 195/195/1 197/197/1 
f 202/202/1 203/203/1 204/204/1 205/205/1 
f 205/205/1 204/204/1 194/194/1 193/193/1 
f 200/200/1 202/202/1 205/205/1 201/201/1 
f 201/201/1 205/205/1 193/193/1 195/195/1 
f 203/203/1 202/202/1 206/206/1 207/207/1 
f 202/202/1 200/200/1 208/208/1 206/206/1 
f 207/207/1 206/206/1 209/209/1 210/210/1 
f 206/206/1 208/208/1 211/211/1 209/209/1 
f 198/198/1 135/135/1 139/139/1 212/212/1 
f 212/212/1 139/139/1 142/142/1 213/213/1 
f 200/200/1 198/198/1 212/212/1 208/208/1 
f 208/208/1 212/212/1 213/213/1 211/211/1 
f 151/151/1 214/214/1 215/215/1 152/152/1 
f 214/214/1 216/216/1 217/217/1 215/215/1 
f 152/152/1 215/215/1 213/213/1 142/142/1 
f 215/215/1 217/217/1 211/211/1 213/213/1 
f 218/218/1 219/219/1 220/220/1 221/221/1 
f 221/221/1 220/220/1 210/210/1 209/209/1 
f 216/216/1 218/218/1 221/221/1 217/217/1 
f 217/217/1 221/221/1 209/209/1 211/211/1 
f 222/222/1 223/223/1 224/224/1 225/225/1 
f 223/223/1 226/226/1 227/227/1 224/224/1 
f 225/225/1 224/224/1 228/228/1 229/229/1 
f 224/224/1 227/227/1 230/230/1 228/228/1 
f 231/231/1 154/154/1 157/157/1 232/232/1 
f 232/232/1 157/157/1 161/161/1 233/233/1 
f 226/226/1 231/231/1 232/232/1 227/227/1 
f 227/227/1 232/232/1 233/233/1 230/230/1 
f 171/171/1 234/234/1 235/235/1 172/172/1 
f 234/234/1 236/236/1 237/237/1 235/235/1 
f 172/172/1 235/235/1 233/233/1 161/161/1 
f 235/235/1 237/237/1 230/230/1 233/233/1 
f 238/238/1 239/239/1 240/240/1 241/241/1 
f 241/241/1 240/240/1 229/229/1 228/228/1 
f 236/236/1 238/238/1 241/241/1 237/237/1 
f 237/237/1 241/241/1 228/228/1 230/230/1 
f 239/239/1 238/238/1 242/242/1 243/243/1 
f 238/238/1 236/236/1 244/244/1 242/242/1 
f 243/243/1 242/242/1 245/245/1 246/246/1 
f 242/242/1 244/244/1 247/247/1 245/245/1 
f 234/234/1 171/171/1 175/175/1 248/248/1 
f 248/248/1 175/175/1 178/178/1 249/249/1 
f 236/236/1 234/234/1 248/248/1 244/244/1 
f 244/244/1 248/248/1 249/249/1 247/247/1 
f 187/187/1 250/250/1 251/251/1 188/188/1 
f 250/250/1 252/252/1 253/253/1 251/251/1 
f 188/188/1 251/251/1 249/249/1 178/178/1 
f 251/251/1 253/253/1 247/247/1 249/249/1 
f 254/254/1 255/255/1 256/256/1 257/257/1 
f 257/257/1 256/256/1 246/246/1 245/245/1 
f 252/252/1 254/254/1 257/257/1 253/253/1 
f 253/253/1 257/257/1 245/245/1 247/247/1 
f 255/255/1 254/254/1 258/258/1 259/259/1 
f 254/254/1 252/252/1 260/260/1 258/258/1 
f 259/259/1 258/258/1 261/261/1 262/262/1 
f 258/258/1 260/260/1 263/263/1 261/261/1 
f 250/250/1 187/187/1 191/191/1 264/264/1 
f 264/264/1 191/191/1 194/194/1 265/265/1 
f 252/252/1 250/250/1 264/264/1 260/260/1 
f 260/260/1 264/264/1 265/265/1 263/263/1 
f 203/203/1 266/266/1 267/267/1 204/204/1 
f 266/266/1 268/268/1 269/269/1 267/267/1 
f 204/204/1 267/267/1 265/265/1 194/194/1 
f 267/267/1 269/269/1 263/263/1 265/265/1 
f 270/270/1 271/271/1 272/272/1 273/273/1 
f 273/273/1 272/272/1 262/262/1 261/261/1 
f 268/268/1 270/270/1 273/273/1 269/269/1 
f 269/269/1 273/273/1 261/261/1 263/263/1 
f 271/271/1 270/270/1 274/274/1 275/275/1 
f 270/270/1 268/268/1 276/276/1 274/274/1 
f 275/275/1 274/274/1 277/277/1 278/278/1 
f 274/274/1 276/276/1 279/279/1 277/277/1 
f 266/266/1 203/203/1 207/207/1 280/280/1 
f 280/280/1 207/207/1 210/210/1 281/281/1 
f 268/268/1 266/266/1 280/280/1 276/276/1 
f 276/276/1 280/280/1 281/281/1 279/279/1 
f 219/219/1 282/282/1 283/283/1 220/220/1 
f 282/282/1 284/284/1 285/285/1 283/283/1 
f 220/220/1 283/283/1 281/281/1 210/210/1 
f 283/283/1 285/285/1 279/279/1 281/281/1 
f 286/286/1 287/287/1 288/288/1 289/289/1 
f 289/289/1 288/288/1 278/278/1 277/277/1 
f 284/284/1 286/286/1 289/289/1 285/285/1 
f 285/285/1 289/289/1 277/277/1 279/279/1 
# 256 polygons

