# This file uses meters as units for non-parametric coordinates.

mtllib CuartoMedida.mtl
g default
v -2.500000 -2.000000 1.500002
v 2.500001 -2.000000 1.500002
v -2.500000 2.000000 1.500002
v 2.500001 2.000000 1.500002
v -2.500000 2.000000 -1.499999
v 2.500001 2.000000 -1.499999
v -2.500000 -2.000000 -1.499999
v 2.500001 -2.000000 -1.499999
v -2.399381 -2.000000 -1.439628
v 2.399383 -2.000000 -1.439628
v 2.399383 -2.000000 1.439630
v -2.399381 -2.000000 1.439630
v -2.399381 1.974276 -1.439628
v 2.399383 1.974276 -1.439628
v 2.399383 1.974276 1.439630
v -2.399381 1.974276 1.439630
v -2.000000 -2.000000 1.500002
v -2.000000 2.000000 1.500002
v -2.000000 2.000000 -1.499999
v -2.000000 -2.000000 -1.499999
v -1.919505 -2.000000 -1.439628
v -1.919505 1.974275 -1.439628
v -1.919505 1.974275 1.439630
v -1.919505 -2.000000 1.439630
v 2.050000 -2.000000 1.500002
v 2.050000 2.000000 1.500002
v 2.050000 2.000000 -1.499999
v 2.050000 -2.000000 -1.499999
v 1.967494 -2.000000 -1.439628
v 1.967494 1.974276 -1.439628
v 1.967494 1.974276 1.439630
v 1.967494 -2.000000 1.439630
v -2.500000 1.600000 1.500002
v -2.500000 1.600000 -1.499999
v -2.000000 1.600000 -1.499999
v 2.050000 1.600000 -1.499999
v 2.500001 1.600000 -1.499999
v 2.500001 1.600000 1.500002
v 2.050000 1.600000 1.500002
v -2.000000 1.600000 1.500002
vt 0.375000 0.000000
vt 0.625000 0.000000
vt 0.375000 0.250000
vt 0.625000 0.250000
vt 0.375000 0.500000
vt 0.625000 0.500000
vt 0.375000 0.750000
vt 0.625000 0.750000
vt 0.375000 1.000000
vt 0.625000 1.000000
vt 0.875000 0.000000
vt 0.875000 0.250000
vt 0.125000 0.000000
vt 0.125000 0.250000
vt 0.375000 0.750000
vt 0.625000 0.750000
vt 0.625000 1.000000
vt 0.375000 1.000000
vt 0.375000 0.750000
vt 0.625000 0.750000
vt 0.625000 1.000000
vt 0.375000 1.000000
vt 0.400000 0.000000
vt 0.400000 1.000000
vt 0.400000 0.250000
vt 0.400000 0.500000
vt 0.400000 0.750000
vt 0.400000 0.750000
vt 0.400000 0.750000
vt 0.400000 1.000000
vt 0.400000 1.000000
vt 0.602500 0.000000
vt 0.602500 1.000000
vt 0.602500 0.250000
vt 0.602500 0.500000
vt 0.602500 0.750000
vt 0.602500 0.750000
vt 0.602500 0.750000
vt 0.602500 1.000000
vt 0.602500 1.000000
vt 0.375000 0.225000
vt 0.125000 0.225000
vt 0.375000 0.525000
vt 0.400000 0.525000
vt 0.602500 0.525000
vt 0.625000 0.525000
vt 0.875000 0.225000
vt 0.625000 0.225000
vt 0.602500 0.225000
vt 0.400000 0.225000
vn 0.000000 0.000000 1.000000
vn 0.000000 0.000000 1.000000
vn 0.000000 0.000000 1.000000
vn 0.000000 0.000000 1.000000
vn 0.000000 1.000000 0.000000
vn 0.000000 1.000000 0.000000
vn 0.000000 1.000000 0.000000
vn 0.000000 1.000000 0.000000
vn 0.000000 0.000000 -1.000000
vn 0.000000 0.000000 -1.000000
vn 0.000000 0.000000 -1.000000
vn 0.000000 0.000000 -1.000000
vn -0.000000 -1.000000 0.000000
vn -0.000000 -1.000000 0.000000
vn -0.000000 -1.000000 0.000000
vn -0.000000 -1.000000 0.000000
vn 1.000000 0.000000 0.000000
vn 1.000000 0.000000 0.000000
vn 1.000000 0.000000 0.000000
vn 1.000000 0.000000 0.000000
vn -1.000000 0.000000 0.000000
vn -1.000000 0.000000 0.000000
vn -1.000000 0.000000 0.000000
vn -1.000000 0.000000 0.000000
vn 0.000000 -1.000000 -0.000005
vn 0.000000 -1.000000 -0.000003
vn 0.000000 -1.000000 -0.000003
vn 0.000000 -1.000000 -0.000005
vn 0.000002 -1.000000 0.000000
vn 0.000002 -1.000000 0.000000
vn 0.000002 -1.000000 0.000000
vn 0.000002 -1.000000 0.000000
vn 0.000000 -1.000000 0.000005
vn 0.000000 -1.000000 0.000005
vn 0.000000 -1.000000 0.000005
vn 0.000000 -1.000000 0.000005
vn -0.000002 -1.000000 0.000000
vn -0.000002 -1.000000 0.000000
vn -0.000002 -1.000000 0.000000
vn -0.000002 -1.000000 0.000000
vn -0.000000 0.000000 1.000000
vn -0.000000 0.000000 1.000000
vn -0.000000 0.000000 1.000000
vn -0.000000 0.000000 1.000000
vn -1.000000 0.000000 0.000000
vn -1.000000 0.000000 0.000000
vn -1.000000 0.000000 0.000000
vn -1.000000 0.000000 0.000000
vn -0.000000 -0.000000 -1.000000
vn -0.000000 -0.000000 -1.000000
vn -0.000000 -0.000000 -1.000000
vn -0.000000 -0.000000 -1.000000
vn 1.000000 0.000000 0.000000
vn 1.000000 0.000000 0.000000
vn 1.000000 0.000000 0.000000
vn 1.000000 0.000000 0.000000
vn 0.000000 1.000000 0.000000
vn 0.000000 1.000000 0.000000
vn 0.000000 0.000000 -1.000000
vn 0.000000 0.000000 -1.000000
vn 0.000000 -1.000000 -0.000003
vn 0.000000 -1.000000 -0.000003
vn 0.000000 0.000000 1.000000
vn 0.000000 0.000000 1.000000
vn 0.000000 -1.000000 0.000000
vn 0.000000 -1.000000 0.000000
vn 0.000000 0.000000 1.000000
vn 0.000000 0.000000 1.000000
vn 0.000000 0.000000 1.000000
vn 0.000000 0.000000 1.000000
vn 0.000000 1.000000 0.000000
vn 0.000000 1.000000 0.000000
vn 0.000000 0.000000 -1.000000
vn 0.000000 0.000000 -1.000000
vn 0.000000 -1.000000 -0.000003
vn 0.000000 -1.000000 -0.000003
vn 0.000000 0.000000 1.000000
vn 0.000000 0.000000 1.000000
vn 0.000000 -1.000000 0.000000
vn 0.000000 -1.000000 0.000000
vn 0.000000 0.000000 -1.000000
vn 0.000000 0.000000 -1.000000
vn 0.000000 0.000000 -1.000000
vn 0.000000 0.000000 -1.000000
vn 0.000000 -1.000000 0.000003
vn 0.000000 -1.000000 0.000003
vn 0.000000 -1.000000 0.000003
vn 0.000000 -1.000000 0.000003
vn -1.000000 0.000000 0.000000
vn -1.000000 0.000000 0.000000
vn 0.000000 0.000000 -1.000000
vn 0.000000 0.000000 -1.000000
vn 0.000000 0.000000 -1.000000
vn 0.000000 0.000000 -1.000000
vn 1.000000 0.000000 0.000000
vn 1.000000 0.000000 0.000000
vn 0.000000 0.000000 1.000000
vn 0.000000 0.000000 1.000000
vn 0.000000 0.000000 1.000000
vn 0.000000 0.000000 1.000000
s 1
g pCube4
usemtl lambert1SG
f 1/1/1 17/23/2 40/50/3 33/41/4
s 2
f 3/3/5 18/25/6 19/26/7 5/5/8
s 3
f 34/43/9 35/44/10 20/27/11 7/7/12
s 4
f 13/19/13 22/29/14 23/30/15 16/22/16
s 5
f 2/2/17 8/11/18 37/47/19 38/48/20
s 6
f 7/13/21 1/1/22 33/41/23 34/42/24
s 7
f 7/7/25 20/27/26 21/28/27 9/15/28
s off
f 8/8/29 2/10/30 11/17/31 10/16/32
f 24/31/33 17/24/34 1/9/35 12/18/36
f 1/9/37 7/7/38 9/15/39 12/18/40
s 8
f 9/15/41 21/28/42 22/29/43 13/19/44
s off
f 10/16/45 11/17/46 15/21/47 14/20/48
f 23/30/49 24/31/50 12/18/51 16/22/52
f 12/18/53 9/15/54 13/19/55 16/22/56
s 2
f 19/26/7 18/25/6 26/34/57 27/35/58
s 3
f 20/27/11 35/44/10 36/45/59 28/36/60
s 7
f 21/28/27 20/27/26 28/36/61 29/37/62
s 8
f 22/29/43 21/28/42 29/37/63 30/38/64
s 4
f 23/30/15 22/29/14 30/38/65 31/39/66
s 1
f 38/48/67 39/49/68 25/32/69 2/2/70
s 2
f 27/35/58 26/34/57 4/4/71 6/6/72
s 3
f 28/36/60 36/45/59 37/46/73 8/8/74
s 7
f 29/37/62 28/36/61 8/8/75 10/16/76
s 8
f 30/38/64 29/37/63 10/16/77 14/20/78
s 4
f 31/39/66 30/38/65 14/20/79 15/21/80
s off
f 11/17/81 32/40/82 31/39/83 15/21/84
f 2/10/85 25/33/86 32/40/87 11/17/88
s 6
f 34/42/24 33/41/23 3/3/89 5/14/90
s 3
f 5/5/91 19/26/92 35/44/10 34/43/9
f 36/45/59 35/44/10 19/26/92 27/35/93
f 37/46/73 36/45/59 27/35/93 6/6/94
s 5
f 38/48/20 37/47/19 6/12/95 4/4/96
s 1
f 26/34/97 39/49/68 38/48/67 4/4/98
f 18/25/99 40/50/3 39/49/68 26/34/97
f 33/41/4 40/50/3 18/25/99 3/3/100
